<?xml version="1.0" standalone="yes"?>
<svg version="1.1" xmlns="http://www.w3.org/2000/svg" width="800" height="600">
<path style="fill:#7e8a10" d="M8 0 c-2.12 4.765 -3.422 8.195 -8 11 l0 -11 l8 0 z"/>
<path style="fill:#32361c" d="M91 0 l3 4 c-26.06 -6.684 -56.91 -1.444 -84.75 -2.75 l-9.25 15.75 l0 -6 c4.578 -2.805 5.88 -6.235 8 -11 l83 0 z"/>
<path style="fill:#467007" d="M93 0 c40.05 16.3 90 27.83 131.8 6.75 l-3.75 -6.75 l30 0 c-69.95 37.78 40.81 113 64 41 c3.439 1.889 8.032 3.157 9.75 7.25 c-15.22 33.13 63.81 27.95 71.25 -0.25 c-6.317 32.63 -42.01 18 -67 23 c0.2537 6.682 32.68 0.9086 45.75 2.25 c-9.694 22.1 -47.87 36.05 -58 5 c4.572 43.15 -37.63 6.292 -60.5 21 c32.43 1.877 -2.3 31.69 -19.25 34.75 c-3.243 -5.238 -4.332 4.034 -8 5 c2.147 -6.324 -7.458 0.7888 -11 0 c-0.1545 -9.686 -6.414 -3.248 -8 2 l-3 4 l-3 -5 c-2.897 15.14 -9.129 1.199 -13 -6 c-9.632 -4.175 -4.249 15.85 -10 16 c-9.839 -15.01 -4.548 13.48 -6.25 21.75 c-6.103 -7.015 -11.58 -16.6 -20.75 -19.75 c-12.11 -7.206 -3.162 10.03 -3 16 c-1.49 4.791 11.23 18.24 2 14 c-7.554 -4.996 -25.8 -20.02 -28 -9 c5.602 6.186 11.3 14.98 19 19 l23 22 c-12.24 2.843 -29.68 -4.25 -40 1 c-0.6634 -0.01862 -2.155 -0.1814 -2 1 c-0.9582 -0.8334 -3.785 -0.8602 -2.75 -2.75 c12.87 -10.13 -12.43 -17.01 -20.25 -22.25 c-1.346 -0.9122 -3.594 -1.07 -4 -3 c3.841 -0.04697 7.428 2.766 10 5 c0.6536 1.251 4.251 3.275 5 1 c-13.64 -0.5357 -2.381 -31.24 -7.25 -18.25 l-3.5 2 l-2.25 -1.75 c6.515 -3.457 6.486 -16.56 11.75 -22.75 c-4.623 -2.018 -7.42 3.225 -9.75 5.75 l55 -18 c-41.92 10.67 -77.9 -31.47 -124.8 -37.75 l23.5 24.5 c-17.6 7.878 -35.38 15.33 -55.75 15.25 l0 -41 c15.16 3.16 12.96 -9.014 0 -6 l0 -46 c11.6 -1.171 23.69 -3.666 34 -3 c-2.601 -0.6864 -4.767 1.828 -5.75 3.75 c14.23 3.445 27.84 15.09 42.5 13 l-1.75 -3.75 c7.933 3.184 -3.597 11.11 -3.25 16.75 c-8.871 3.702 -8.261 29.02 3.25 24.25 c13.25 -80.52 138.2 -39.82 179.8 -99.75 c-7.962 0.2445 -20.9 -1.743 -26 1 c6.631 10.22 -28.69 17.51 -40.75 16.75 c-31.08 4.634 -59.37 -8.503 -88 -15 l-3 -4 l2 0 z"/>
<path style="fill:#769a08" d="M221 0 l3.75 6.75 c-41.75 21.08 -91.7 9.552 -131.8 -6.75 l128 0 z"/>
<path style="fill:#69960d" d="M319 0 c-5.016 18.34 -4.782 57.87 26 47 c0.7263 -5.26 -7.835 -0.7978 -9.75 -6.25 c11.12 -20.01 -33.04 -41.05 12.75 -40.75 l37 0 c-2 4.923 5.085 5.758 9 5 c17.43 9.569 14.63 30.57 2 43 c-7.443 28.2 -86.47 33.38 -71.25 0.25 c-1.718 -4.093 -6.311 -5.361 -9.75 -7.25 c-23.19 72.02 -134 -3.222 -64 -41 l68 0 z"/>
<path style="fill:#87af2e" d="M348 0 c-45.79 -0.2991 -1.634 20.74 -12.75 40.75 c1.915 5.452 10.48 0.9901 9.75 6.25 c-30.78 10.87 -31.02 -28.66 -26 -47 l29 0 z"/>
<path style="fill:#343722" d="M496 0 l6 12 l-7.25 -10.75 l-108.5 0 l7.75 3.75 c-3.915 0.7578 -11 -0.07747 -9 -5 l111 0 z"/>
<path style="fill:#636f09" d="M498 0 c6.07 17.87 28.82 25.61 48 22 c-13.21 5.773 -32.69 -0.3174 -44 -10 l-6 -12 l2 0 z"/>
<path style="fill:#86a90a" d="M656 0 c-5.462 13.16 -20.48 17.56 -32 23 c-2.998 1.801 -6.787 4.423 -11 4 c-14.59 1.651 -28.34 2.193 -43 2 c-7.669 -7.302 6.296 -29.72 -4 -26 c-6.126 6.247 -11.39 14.96 -20 19 c-19.18 3.615 -41.93 -4.131 -48 -22 l158 0 z"/>
<path style="fill:#303d09" d="M800 0 l0 1 l-111 0 c-11.76 2.309 -32 -6.46 -35.75 8.75 c48.14 -27.14 172.8 19.54 94 64 c29.58 -0.7437 60.16 37.2 23.5 53 c7.432 2.222 18.34 -18.99 29.25 -8.75 l0 3 c-14.32 1.304 -27.63 8.67 -41 16 c-13.51 -13.08 -32.65 1.729 -30 17 l-9 -37 c10.45 30.65 14.21 6.795 11.25 -5.25 c14.57 31.78 67.35 11.87 50.5 -19.5 c-18.68 -26.32 -91.19 -15.73 -61.75 24.75 l-7.75 -14.75 c4.894 17.73 -7.55 36.62 -1.25 48.75 c-3.482 1.43 -7.059 -1.272 -6 5 c-5.7 1.47 8.089 -1.216 12 10 c5.604 -2.564 10.8 -5.894 12 -12 c-6.312 11.42 -15.48 22.93 -7.75 38.75 c17.16 8.04 33.33 11.68 33 0.5 c4.776 5.72 7.229 0.1401 9.75 -5.25 l-1 9 c-1.944 4.538 -3.719 13.33 -0.25 17.75 l4.25 -22.75 c1.348 -3.068 3.694 -8.082 1 -11 c1.038 -5.047 1.527 3.208 4 2 l-2 11 c-1.218 10.84 -7.515 20.86 -1.25 30.75 c3.237 -1.155 -1.515 -5.372 2.25 -4.75 c1.425 0.2121 3.671 0.1135 3 -2 c4.825 -11.16 8.068 -23.28 9 -34 c-0.7195 -3.817 -3.925 -4.668 -7 -3 c5.075 -9.224 9.033 3.186 11 9 c-4.012 16.26 -7.295 37.13 -22.75 40.75 c-0.3998 -26.66 -19.98 -28.95 -45 -34.5 c0.9576 6.211 -2.818 22.06 4.75 20.75 l0 1 c-4.81 0.7077 -9.159 3.271 -12 7 c5.649 -26.59 -17.67 -48.62 -12.25 -72.75 c-6.638 -0.04079 -18.18 6.802 -27.75 11.75 c12.02 -9.799 27.88 -11.88 22.75 -31.75 c-10.01 -5.216 -24.28 -6.399 -30.75 -16.25 c2.485 -9.754 -0.9061 -30.35 15.75 -32.25 c0.7256 -1.66 0.1332 -3.375 -0.75 -4.75 c10.56 1.031 -33.71 47.41 14.75 46.75 c-1.115 -19.05 21.05 -44.84 -4.75 -44.75 c7.623 -7.784 16.57 -31.5 0.25 -33.75 c11.49 34.23 82.39 40.81 82.5 -12 c-30.28 -41.9 -99.96 -33.69 -137.8 -9.25 c7.265 -10.23 -3.477 -3.955 -10 -3 c11.52 -5.435 26.54 -9.841 32 -23 l144 0 z"/>
<path style="fill:#0e1205" d="M94 4 c28.63 6.497 56.92 19.63 88 15 c12.06 0.76 47.38 -6.534 40.75 -16.75 c5.102 -2.743 18.04 -0.7555 26 -1 c-41.58 59.93 -166.5 19.23 -179.8 99.75 c-11.51 4.773 -12.12 -20.55 -3.25 -24.25 c-0.3474 -5.639 11.18 -13.57 3.25 -16.75 l-35 -13 c-10.31 -0.6664 -22.4 1.829 -34 3 l0 -33 l9.25 -15.75 c27.84 1.306 58.69 -3.934 84.75 2.75 z"/>
<path style="fill:#0e1405" d="M502 12 c11.31 9.683 30.79 15.77 44 10 c8.614 -4.035 13.87 -12.75 20 -19 c5.141 4.826 -3.916 21.29 4 26 c13.24 1.914 30.45 1.83 43 -2 c4.213 0.4233 8.002 -2.199 11 -4 c6.523 -0.955 17.26 -7.23 10 3 c-29.89 27.11 15.84 59.1 45 53 c0.8832 1.375 1.476 3.09 0.75 4.75 c-16.66 1.902 -13.27 22.5 -15.75 32.25 l-4.25 -13.75 c-36.45 -2.17 -80.85 4.969 -101 38.5 c-18.93 -3.269 -41.32 1.387 -53.75 14.25 c-1.756 -2.205 -4.38 -5.014 -5 -8 c6.641 -15.08 0.5064 -39.41 -18 -44 l-3.75 -9.75 c18.41 8.55 27.33 18.76 31 38.5 c24.67 -6.218 68.72 -12.2 62.75 -44.75 c2.018 -2.311 0.94 -6.065 -2 -7 c-26.1 -40.88 -80.94 -1.744 -97.75 -27.25 c94.47 4.179 -18.48 -80.29 -60 -39.5 c1.92 16.31 -1.176 35.62 -15 47.5 c15.87 14.04 50.18 3.13 52.5 15 c-51.12 4.91 -120 17.81 -136.8 73.25 c-7.031 3.048 -16.03 3.352 -21 10 c-6.698 6.922 -16.36 14.53 -23 7 c2.717 -4.092 6.003 -11.51 4 -16 l-14 14 c-1.747 0.6795 -5.872 6.2 -6 2 c7.74 -16.42 -4.608 -6.609 -10.75 1.75 c0.01216 -11.9 0.07956 -23.59 -5.25 -33.75 c16.95 -3.06 51.68 -32.87 19.25 -34.75 c22.87 -14.71 65.07 22.15 60.5 -21 c10.13 31.05 48.31 17.1 58 -5 c-13.07 -1.341 -45.5 4.432 -45.75 -2.25 c24.99 -4.996 60.68 9.631 67 -23 c12.63 -12.43 15.43 -33.43 -2 -43 l-7.75 -3.75 l108.5 0 l7.25 10.75 z"/>
<path style="fill:#546308" d="M570 29 c-7.916 -4.71 1.141 -21.17 -4 -26 c10.3 -3.725 -3.669 18.7 4 26 z"/>
<path style="fill:#070b05" d="M800 1 l0 117 c-10.91 -10.24 -21.82 10.97 -29.25 8.75 c36.66 -15.8 6.082 -53.74 -23.5 -53 c78.77 -44.46 -45.86 -91.14 -94 -64 c3.75 -15.21 23.99 -6.441 35.75 -8.75 l111 0 z"/>
<path style="fill:#4a7908" d="M570 80 c-15.73 -19.25 -17.08 4.13 2 7 c5.969 32.55 -38.08 38.53 -62.75 44.75 c-3.667 -19.74 -12.59 -29.95 -31 -38.5 l3.75 9.75 l-8 -7 c-9.124 -7.177 -22.92 -17.12 -35 -12 l40 25 c6.543 3.418 9.8 -3.313 3 -6 c18.51 4.595 24.64 28.92 18 44 l-4 -1 l0 8 c-4.226 12.56 -19.64 14.73 -29 20 l-7 -6 c-1.636 -3.547 -7.154 -7.185 -11.75 -5.75 c-0.5186 5.203 1.82 10.84 4.75 14.75 l0 1 c-19.32 5.102 -39.16 9.175 -59.75 5.25 c17.32 8.68 40.85 2.666 56.75 -0.25 c-4.264 0.6423 -16.79 6.292 -7.25 6.75 c-1.875 -0.07408 -4.738 1.252 -2.75 3.25 c-23.94 -1.66 -46.31 6.452 -64.25 21.75 c-3.228 -0.3026 1.558 -6.396 -3.5 -4.5 c-7.42 12.56 -20.2 28.79 -35.25 22.75 l1 -6 c6.303 -8.686 -1.33 -6.611 -6 -2 c-5.763 0.2533 -1.434 -5.736 -5 -7 c-0.06494 -1.551 0.6824 -4.707 -2 -4 c36.59 -20.82 71.77 -28.35 79.75 -68.75 c-13.36 19.95 -64.61 22.64 -59 -5 c-5.31 -1.346 -9.927 3.414 -10.75 7.75 c-2.294 -10.53 -14.45 3.863 -22 1 c16.79 -55.44 85.63 -68.34 136.8 -73.25 c-2.317 -11.87 -36.63 -0.9603 -52.5 -15 c13.82 -11.88 16.92 -31.19 15 -47.5 c41.52 -40.79 154.5 43.68 60 39.5 c16.81 25.51 71.65 -13.63 97.75 27.25 z"/>
<path style="fill:#58840b" d="M679 79 c-29.16 6.098 -74.89 -25.89 -45 -53 c37.79 -24.44 107.5 -32.65 137.8 9.25 c-0.106 52.81 -71.01 46.23 -82.5 12 c16.32 2.25 7.373 25.97 -0.25 33.75 c25.8 -0.09233 3.635 25.7 4.75 44.75 c-48.46 0.6614 -4.193 -45.72 -14.75 -46.75 z"/>
<path style="fill:#505e04" d="M613 27 c-12.55 3.83 -29.76 3.914 -43 2 c14.66 0.1928 28.41 -0.3494 43 -2 z"/>
<path style="fill:#5b3f05" d="M109 31 c9.487 11.97 -13.09 17.82 -21.75 13.75 c-1.008 -19.19 14.2 0.6115 21.75 -13.75 z"/>
<path style="fill:#734c11" d="M62 42 l-5 2 c-12.74 6.634 20.63 4.342 12 -2 l-7 0 c2.004 -2.085 5.875 -2.131 9 -2 c8.775 13.36 -12.04 11.61 -21.75 10.75 c-2.128 -7.343 7.815 -8.236 12.75 -8.75 z"/>
<path style="fill:#202c00" d="M185 40 c7.08 1.748 2.975 15.95 -2 19 c-1.276 -5.141 1.222 -13 2 -19 z"/>
<path style="fill:#ba863c" d="M62 42 l7 0 c8.629 6.342 -24.74 8.634 -12 2 l5 -2 z"/>
<path style="fill:#89b56f" d="M34 47 l35 13 l1.75 3.75 c-14.66 2.089 -28.27 -9.555 -42.5 -13 c0.983 -1.922 3.149 -4.436 5.75 -3.75 z"/>
<path style="fill:#132301" d="M313 47 c7.558 16.83 -20.23 37.95 -34.75 26.25 c17.34 2.699 27.69 -11.24 34.75 -26.25 z"/>
<path style="fill:#243b03" d="M454 47 c4.822 1.115 8.578 5.75 12 9 c-5.639 8.635 -11.18 -3.652 -12 -9 z"/>
<path style="fill:#080f04" d="M700 62 c9.214 8.922 8.651 20.11 -5.75 17.75 l5.75 -17.75 z"/>
<path style="fill:#152301" d="M314 68 c8.379 3.529 -8.428 13.84 -13.75 9.75 l13.75 -9.75 z"/>
<path style="fill:#6aa326" d="M570 80 c2.94 0.935 4.018 4.689 2 7 c-19.08 -2.87 -17.73 -26.25 -2 -7 z"/>
<path style="fill:#487706" d="M720 117 c-29.44 -40.48 43.07 -51.07 61.75 -24.75 c16.85 31.37 -35.93 51.28 -50.5 19.5 c2.961 12.04 -0.7989 35.9 -11.25 5.25 z"/>
<path style="fill:#67a736" d="M474 96 c-15.77 -5.812 -0.8745 9.399 5 13 l-40 -25 c12.08 -5.124 25.88 4.823 35 12 z"/>
<path style="fill:#6b9713" d="M507 84 c11.34 1.032 -2.299 12.31 8.75 16.75 c-9.928 7.057 -11.6 -7.576 -19.5 -1 l10.75 -15.75 z"/>
<path style="fill:#192500" d="M258 87 l9 0 c2.692 0.235 5.737 -0.7084 8 1 c9.313 8.925 -37.72 2.283 -17 -1 z"/>
<path style="fill:#6ca218" d="M176 90 c15.23 -5.074 12.52 13.76 2.75 5.25 c-4.534 5.857 -3.348 0.5858 -2.75 -5.25 z"/>
<path style="fill:#669635" d="M212 90 c9.732 0.7987 24.48 0.9545 29.75 6.75 l-29.75 -6.75 z"/>
<path style="fill:#88ba6d" d="M474 96 l8 7 c6.8 2.687 3.543 9.418 -3 6 c-5.874 -3.601 -20.77 -18.81 -5 -13 z"/>
<path style="fill:#71933b" d="M0 102 l0 -6 c12.96 -3.014 15.16 9.16 0 6 z"/>
<path style="fill:#5d8a06" d="M664 116 c6.467 9.851 20.74 11.03 30.75 16.25 c5.126 19.87 -10.73 21.95 -22.75 31.75 c-14.13 22.01 -40.37 5.6 -63 11 c-2.077 -0.1291 -5.366 0.7902 -6 -2 c8.857 -6.724 8.635 -22.95 22 -27 c-1.441 -0.3266 -7.275 -0.6273 -9 1 c-9.471 2.525 -24.68 4.987 -24 17 l0 -10 c-8.659 -0.05939 -15.69 13.06 -21 20 l-7 10 c1.818 -11.21 4.116 -25.43 0 -36 c-2.515 1.402 -4.361 4.358 -5 7 c-5.79 0.3647 -9.297 15.92 -11 5 l-3 -12 c-7.358 -3.742 -8.597 9.075 -13 12 c0.5905 -3.579 -5.649 -17.39 -7 -10 l-4 11 l-6 20 c-2.559 -1.958 -3.148 -5.939 -4 -9 l-6 -17 c12.43 -12.86 34.82 -17.52 53.75 -14.25 c20.15 -33.53 64.55 -40.67 101 -38.5 l4.25 13.75 z"/>
<path style="fill:#0b1005" d="M720 117 l9 37 c-1.201 6.106 -6.396 9.436 -12 12 c-3.911 -11.22 -17.7 -8.53 -12 -10 c-1.059 -6.272 2.518 -3.57 6 -5 c-6.3 -12.13 6.144 -31.02 1.25 -48.75 l7.75 14.75 z"/>
<path style="fill:#0e1205" d="M102 159 c-2.905 4.476 -13.86 17.49 -2 17 l2.25 1.75 l3.5 -2 c4.869 -12.99 -6.391 17.71 7.25 18.25 c-0.7494 2.275 -4.346 0.2511 -5 -1 c-2.572 -2.234 -6.159 -5.047 -10 -5 c-1.201 -1.974 -3.756 -3.581 -6 -4 c-4.626 -2.657 -9.768 -3.062 -15 -4 c-6.411 -2.925 -15.43 0.6599 -21 4 c-21.55 2.73 8.374 35.57 -8.75 50.25 c-1.931 2.732 3.067 4.109 3 1 c11.65 2.533 -6.893 3.292 -9.5 7.5 c-8.098 3.746 -16.91 12.05 -26.5 11 c50.92 -17.24 37.64 -83.87 -14.25 -84.75 l0 -26 c20.37 0.08359 38.15 -7.372 55.75 -15.25 l-23.5 -24.5 c46.85 6.276 82.83 48.42 124.8 37.75 l-55 18 z"/>
<path style="fill:#487504" d="M800 121 l0 88 c-14.17 3.036 -5.115 -14.28 -13 -19 c-1.967 -5.814 -5.925 -18.22 -11 -9 c-1.442 0.01625 -3.393 0.764 -4 2 c-2.473 1.208 -2.962 -7.047 -4 -2 l-4 7 c-2.521 5.39 -4.974 10.97 -9.75 5.25 c0.3298 11.18 -15.84 7.54 -33 -0.5 c-7.729 -15.82 1.438 -27.33 7.75 -38.75 c-2.65 -15.27 16.49 -30.08 30 -17 c13.37 -7.33 26.68 -14.7 41 -16 z"/>
<path style="fill:#e8cbdb" d="M237 134 c5.33 10.16 5.262 21.85 5.25 33.75 c6.142 -8.359 18.49 -18.17 10.75 -1.75 c-3.943 16.64 -11.43 27.17 -24 38 c-5.976 2.589 -1.502 -9.214 -3.25 -12.75 c-2.74 7.701 -6.719 1.016 -8.5 -3 l-3 12.5 c-0.595 -3.151 0.422 -10.74 -2.25 -4.75 c-4.325 0.4379 0.1916 -6.452 -4 -7 c-13.55 1.239 -4.578 -35.74 -12.75 -30.75 c-3.112 22.39 -6.078 7.8 -6.25 -6.25 l2 -18 c3.871 7.199 10.1 21.14 13 6 l3 5 l7.75 32.75 c0.6378 -12.59 -0.7003 -26.25 -4.75 -36.75 c1.586 -5.248 7.846 -11.69 8 -2 l2 10 l3.75 26.75 c-1.157 -13.2 8.777 -24.37 5.25 -36.75 c3.668 -0.9658 4.757 -10.24 8 -5 z"/>
<path style="fill:#7a6172" d="M191 134 l-2 18 c2.461 15.07 -4.369 5.309 -8 -2 c5.751 -0.1546 0.3681 -20.17 10 -16 z"/>
<path style="fill:#1b1513" d="M229 139 c-3.968 2.221 -3.4 10.36 -9 10 l-2 -10 c3.542 0.7888 13.15 -6.324 11 0 z"/>
<path style="fill:#a6669f" d="M229 139 c3.527 12.38 -6.407 23.55 -5.25 36.75 l-3.75 -26.75 c5.6 0.3643 5.032 -7.779 9 -10 z"/>
<path style="fill:#111d04" d="M325 214 c-2.235 0.6628 -3.663 -0.7646 -3 -3 c8.098 -5.868 12.1 -14.19 11.75 -22.75 c-9.882 5.966 -13.59 -14.79 -8.75 -23.25 l10 -17 c0.8228 -4.336 5.44 -9.096 10.75 -7.75 c-5.607 27.64 45.64 24.95 59 5 c-7.981 40.4 -43.16 47.93 -79.75 68.75 z"/>
<path style="fill:#be74ad" d="M210 141 c4.05 10.5 5.388 24.16 4.75 36.75 l-7.75 -32.75 l3 -4 z"/>
<path style="fill:#b46ba5" d="M181 150 c3.631 7.309 10.46 17.07 8 2 c0.1723 14.05 3.138 28.64 6.25 6.25 c8.172 -4.988 -0.798 31.99 12.75 30.75 l-9 2 l-4.75 -11.75 c0.1984 7.618 -0.2476 9.536 -2.25 13.75 c-3.763 9.061 -3.21 -0.7366 -8.75 -0.75 c-1.08 3.036 3.884 11.31 -2 10.5 c-4.646 -8.499 -8.358 1.852 -0.25 3.25 c0.9455 0.7218 1.758 4.949 -0.25 3.25 c-5.841 -1.846 10.9 15.46 12.25 12.75 l5 5 c2.298 0.01474 8.258 6.792 4 7 l-19 -12 l-38.75 -41.75 l8.75 2.75 c12.23 13.95 2.3 -8.054 -1 -15 c7.261 4.685 15.04 25.42 23.75 18.75 c-0.749 -8.19 -23.64 -27.47 -21.75 -34.75 c9.17 3.151 14.65 12.74 20.75 19.75 c1.702 -8.271 -3.589 -36.76 6.25 -21.75 z"/>
<path style="fill:#6c9746" d="M335 148 l-10 17 l-1.25 -4.75 l-31.75 -1.25 c4.969 -6.648 13.97 -6.952 21 -10 c7.553 2.863 19.71 -11.53 22 -1 z"/>
<path style="fill:#724374" d="M500 147 c0.6195 2.986 3.244 5.795 5 8 l6 17 l-6 -9 c-3.626 3.032 3.966 12.78 -1.25 12.75 c-7.384 8.051 -4.285 -22.56 -7.75 -29.75 l4 1 z"/>
<path style="fill:#345004" d="M609 175 c-19.15 3.484 11.04 -25.13 7 -28 c1.725 -1.627 7.559 -1.327 9 -1 c-13.36 4.051 -13.14 20.28 -22 27 c0.6343 2.79 3.923 1.871 6 2 z"/>
<path style="fill:#a66197" d="M511 172 c0.8522 3.061 1.441 7.042 4 9 c-3.357 2.538 -2.454 10.61 -1 14 c0.4049 -11.02 8.885 -23.25 7 -34 l4 -11 c8.866 22.62 -12.64 43.19 -1 63 l-7 13 c0.1197 0.8301 0.1701 3.992 -1.25 2.25 c-2.594 9.859 -4.11 -16.97 -8 -12.5 c-2.681 -4.113 -2.294 6.311 -0.75 8.25 c-9.739 -5.842 -8.298 0.06761 -12 6 l-15 -54 l15.75 16.75 c-1.19 -12.7 -0.6345 -25.9 0.25 -38.75 l0 -8 c3.465 7.194 0.3662 37.8 7.75 29.75 c5.216 0.03152 -2.376 -9.718 1.25 -12.75 l6 9 z"/>
<path style="fill:#e7d5d8" d="M532 160 c4.061 20.26 6.217 -8.914 13 -12 l3 12 c-1.97 15.55 -15.24 26.2 -10.25 43.75 c-2.439 0.3032 -5.709 0.6111 -6.75 3.25 l-7 6 c-11.64 -19.81 9.866 -40.38 1 -63 c1.351 -7.395 7.59 6.421 7 10 z"/>
<path style="fill:#938078" d="M545 148 c-6.783 3.086 -8.939 32.26 -13 12 c4.403 -2.925 5.642 -15.74 13 -12 z"/>
<path style="fill:#0a0e05" d="M616 147 c4.038 2.867 -26.15 31.48 -7 28 c22.63 -5.4 48.87 11.01 63 -11 c9.573 -4.948 21.11 -11.79 27.75 -11.75 c-5.424 24.13 17.9 46.16 12.25 72.75 c-2.558 3.061 -3.549 14.43 -7 7 c-1.166 -3.955 -1.692 -8.86 -4 -12 c-5.286 -0.09682 -5.341 -4.984 -8 -9 c-1.317 -5.737 -7.829 -5.687 -8.25 0.75 l-12.75 -3.75 c-9.836 -3.226 -24.1 -8.242 -14 6 c3.677 9.851 7.235 19.51 9 30 l-0.25 2.75 c-4.759 -6.833 -11.03 -14.68 -11.75 -22.75 c-0.0824 -5.662 -8.257 -38.35 -9.25 -16.25 c-1.682 -0.4521 0.3305 -8.198 -2.75 -4.75 c-5.727 0.6261 -11.46 3.952 -16 7 c-2.941 -0.6589 -7.149 2.842 -5 -2 c6.194 -2.673 13.68 -17.27 2 -12 c-9.857 -0.7273 -19.05 -10.76 -26 -18 c7.332 -18.25 -14.23 2.822 -6 -14 c-0.6828 -12.01 14.53 -14.47 24 -17 z"/>
<path style="fill:#ebdfe2" d="M564 184 c-3.714 11.99 -7.767 25.45 -14 37 l-1 0 c-6.344 -5.445 -10.44 -42.83 10 -66 c0.6389 -2.642 2.485 -5.598 5 -7 c4.116 10.57 1.818 24.79 0 36 z"/>
<path style="fill:#884a8a" d="M154 152 c-1.887 7.283 21 26.56 21.75 34.75 c-8.708 6.672 -16.49 -14.07 -23.75 -18.75 l-1 0 c-0.1617 -5.969 -9.107 -23.21 3 -16 z"/>
<path style="fill:#f1cfe4" d="M269 166 l-8.75 12.75 l11.75 -5.75 c7.326 1.89 -6.484 9.673 -7 15 l-9 9 l-5.25 3.75 c-16.99 15.41 15.84 -24.08 1.5 -11.5 l-5 6 l-6.25 7.75 l-3 -2 c7.338 -9.767 22.05 -21.34 21 -37 l14 -14 c2.003 4.493 -1.283 11.91 -4 16 z"/>
<path style="fill:#8b9c0e" d="M100 176 c-11.86 0.4941 -0.9049 -12.52 2 -17 c2.33 -2.525 5.127 -7.768 9.75 -5.75 c-5.264 6.193 -5.235 19.29 -11.75 22.75 z"/>
<path style="fill:#9c8e6f" d="M592 154 c-8.548 4.191 -12.82 12.64 -19 19 l-2 1 c5.307 -6.939 12.34 -20.06 21 -20 z"/>
<path style="fill:#19150d" d="M496 154 c-0.8845 12.85 -1.44 26.05 -0.25 38.75 l-15.75 -16.75 c-6.592 -5.375 5.96 14.04 3.75 19.75 l-16.75 -21.75 c9.356 -5.271 24.77 -7.437 29 -20 z"/>
<path style="fill:#edd6e0" d="M592 154 l0 10 c-8.234 16.82 13.33 -4.247 6 14 l-6.75 14.25 c-1.176 2.538 -1.376 5.306 -4 7 c-15.49 19.03 29.41 -18.67 12.75 3.75 l-6 7 c-6.753 2.79 -5.67 8.355 -8 13 l-10.75 6.25 c-26.77 18.47 16.1 -37.24 -3.5 -13.5 l-4 8 c-4.672 3.922 -6.957 9.649 -9.75 14.25 l-4 -7 c-7.785 -21.54 23.88 -36.17 19 -58 c6.177 -6.364 10.45 -14.81 19 -19 z"/>
<path style="fill:#d28db5" d="M559 155 c-20.44 23.17 -16.34 60.56 -10 66 l0 1 c-4.183 2.589 -4.165 0.7707 -4.25 -3.75 c-4.57 14.53 -1.198 -10.36 -4.75 -2.25 c-3.279 0.1762 -5.939 -3.858 -5 2 l0 5 c-5.359 -1.447 -6.219 24.4 -18 21 c-4.179 -4.514 6.675 -8.133 3 -13 c3.001 -13.44 16.57 -6.411 8.25 -18.75 c4.065 0.4041 9.771 -0.6689 8.5 -6 l-5.75 0.75 c1.041 -2.639 4.311 -2.947 6.75 -3.25 c-4.993 -17.55 8.28 -28.2 10.25 -43.75 c1.703 10.92 5.21 -4.635 11 -5 z"/>
<path style="fill:#457007" d="M325 165 c-4.84 8.459 -1.132 29.22 8.75 23.25 c0.3511 8.561 -3.652 16.88 -11.75 22.75 c-0.01462 -2.49 0.999 -10.7 -3 -7 l-13 9 c-6.985 11.35 -7.683 1.803 -10.25 -6.75 c-9.766 13.45 -10.77 0.6617 -16.75 -8.25 c-12.31 -0.2659 -10.09 30.21 -14 42 c-4.671 -11.87 -10.64 -21.89 -19 -31 c0.6073 -1.236 2.558 -1.984 4 -2 c6.802 -5.457 12.62 -12.35 18 -19 c3.713 -3.826 16.1 -21.13 4 -15 l-11.75 5.75 l8.75 -12.75 c6.643 7.528 16.3 -0.07848 23 -7 l31.75 1.25 l1.25 4.75 z"/>
<path style="fill:#d6a1c2" d="M515 181 l6 -20 c1.885 10.75 -6.595 22.98 -7 34 c-1.454 -3.394 -2.357 -11.46 1 -14 z"/>
<path style="fill:#7c3f72" d="M460 168 c-8.502 -2.018 1.531 7.465 2 11 c-0.4684 6.327 8.239 8.619 0.25 12.75 c-2.426 -4.546 -5.423 -13.94 -9.25 -14.75 c-2.93 -3.906 -5.269 -9.547 -4.75 -14.75 c4.596 -1.435 10.11 2.203 11.75 5.75 z"/>
<path style="fill:#9e4783" d="M259 164 c1.047 15.66 -13.66 27.23 -21 37 c-0.759 9.362 5.393 17.16 8 25 l11 26 c-0.1898 0.9471 0.592 2.944 -1 3 c-2.267 -5.851 -6.741 -11.46 -11 -16 l-5 -7 c-2.073 -3.714 -1.112 -14.19 -7 -12 c5.272 -5.565 -1.238 -3.023 1.75 -9.75 c-7.426 0.2419 -7.205 11.84 -13.75 10.75 c9.811 8.211 25.83 38.19 8.25 19.25 c-3.079 3.339 3.696 9.876 -2.25 7.75 c11.44 27.8 15.89 11.84 30 32 c-2.478 -9.985 3.578 -19.51 10 -10 c-0.02698 2.927 2.702 11.34 5 6 c3.176 -2.219 -2.838 -5.624 -0.75 -8.75 c4.493 6.405 10.41 17.19 0.75 14.75 c1.292 9.157 2.221 14.96 13 6 c-8.194 6.024 -5.247 10.86 -3 19 l-15 -3 c-0.6432 -3.959 8.606 -15.63 -2 -27 c-7.03 10.11 -7.289 14.6 -6 24 c-7.131 0.3238 -15.73 -10.12 -20 -7 c-15.54 -11.34 -28.67 -25.7 -50 -20 l18.75 -1.25 l-7.75 -8.75 l22.75 13.75 l-18.75 -16.75 c4.119 -2.621 13.67 9.364 9 -1 l7 4 c8.517 4.381 12.85 15.95 20.75 16.75 c-4.575 -4.697 -17.71 -23.8 -20.75 -16.75 c-4.55 -5.166 -9.577 -13.23 -17 -16 c-5.984 -18.55 33.21 13.57 18 -13 l-2.25 -5.75 c-9.672 2.327 1.369 -17.28 -10.75 -13.25 l14 -10 c3.438 -1.464 5.345 6.747 7 -2 c12.57 -10.83 20.06 -21.36 24 -38 c0.1284 4.2 4.253 -1.321 6 -2 z"/>
<path style="fill:#4f6b08" d="M703 165 c14 1.649 9.906 15.02 9.75 25.75 c-1.45 -11.47 -9.314 -13.18 -9.75 -25.75 z"/>
<path style="fill:#dc97cb" d="M460 168 l7 6 l16.75 21.75 c2.21 -5.71 -10.34 -25.13 -3.75 -19.75 l15 54 c5.872 1.172 8.923 12.49 7 20 l-5 -3 c-5.713 -7.615 -34.3 -55.89 -9 -30 l-26 -38 c-0.4686 -3.535 -10.5 -13.02 -2 -11 z"/>
<path style="fill:#843a76" d="M153 182 l0 1 l-8.75 -2.75 l38.75 41.75 l-16 -8 l-23 -22 c-5.21 -5.808 -14.66 -18.79 -19 -19 c2.204 -11.02 20.45 4.004 28 9 z"/>
<path style="fill:#82725c" d="M152 168 c3.3 6.946 13.23 28.95 1 15 l0 -1 c9.233 4.245 -3.49 -9.209 -2 -14 l1 0 z"/>
<path style="fill:#639409" d="M56 184 l-3.75 2.75 c16.84 5.068 36.2 5.533 49.75 4.25 c7.817 5.245 33.12 12.12 20.25 22.25 c-1.035 1.89 1.792 1.917 2.75 2.75 c15 4.231 30.77 15.37 20 32 c-26.49 35.74 -46.7 7.38 -73.75 -2.75 c6.945 8.83 16.71 19.36 17.5 31.5 c-30.55 7.031 -58.67 6.6 -88.75 0.25 l0 -108 c51.89 0.8834 65.17 67.51 14.25 84.75 c9.585 1.051 18.4 -7.254 26.5 -11 c2.607 -4.208 21.15 -4.967 9.5 -7.5 c0.06731 3.109 -4.931 1.732 -3 -1 c17.12 -14.68 -12.8 -47.52 8.75 -50.25 z"/>
<path style="fill:#967c81" d="M144 192 c-7.696 -4.024 -13.4 -12.81 -19 -19 c4.337 0.2087 13.79 13.19 19 19 z"/>
<path style="fill:#996876" d="M268 188 l-3 0 c0.5163 -5.327 14.33 -13.11 7 -15 c12.1 -6.131 -0.2866 11.17 -4 15 z"/>
<path style="fill:#cc86b8" d="M573 173 c4.875 21.83 -26.79 36.46 -19 58 c-0.6634 -0.01862 -2.155 -0.1814 -2 1 c-5.57 -2.473 -0.1526 -8.288 -2 -11 c6.233 -11.55 10.29 -25.01 14 -37 l7 -10 l2 -1 z"/>
<path style="fill:#ab5296" d="M462 179 l26 38 c-25.3 -25.89 3.287 22.39 9 30 c-14.37 -4.378 -0.7863 3.36 3 9 l0 2 c-4.126 -1.245 -8.718 -3.516 -12 -6 c-5.879 -5.656 -18.7 -14.76 -28 -18 l4 -1 l-19 -19 c-2.723 -0.798 -4.958 -3.052 -5 -6 c4.855 -0.5836 8.825 3.298 12 6 c7.929 8.731 16.4 19.31 28.75 23.75 c-1.524 -2.023 -2.792 -4.797 -5 -4.5 c-2.97 -3.624 4.15 0.3729 1.25 -3.25 l13.75 10.75 c-9.885 -15.66 -23.56 -32.04 -36.75 -44.75 c4.202 2.267 -0.4147 -5.269 2 -6 c8.082 2.927 -1.632 -8.789 -3 -12 l0 -1 c3.827 0.8091 6.824 10.2 9.25 14.75 c7.989 -4.131 -0.7184 -6.423 -0.25 -12.75 z"/>
<path style="fill:#263105" d="M453 178 c1.368 3.211 11.08 14.93 3 12 l-5 -5 c0.01862 -0.6634 0.1814 -2.155 -1 -2 c-15.9 2.916 -39.43 8.93 -56.75 0.25 c20.59 3.925 40.43 -0.1481 59.75 -5.25 z"/>
<path style="fill:#4a6e15" d="M598 178 c6.955 7.236 16.14 17.27 26 18 l-28 15 c-0.6634 0.01862 -2.155 0.1814 -2 -1 l6 -7 c16.66 -22.42 -28.24 15.28 -12.75 -3.75 c2.624 -1.694 2.824 -4.462 4 -7 l6.75 -14.25 z"/>
<path style="fill:#7daf31" d="M77 180 c-28.37 2.851 5.114 8.875 16.75 7.75 l-1.75 -3.75 c2.244 0.4191 4.799 2.026 6 4 c0.4057 1.93 2.654 2.088 4 3 c-13.55 1.283 -32.91 0.8176 -49.75 -4.25 l3.75 -2.75 c5.565 -3.34 14.59 -6.925 21 -4 z"/>
<path style="fill:#df9ca9" d="M199 191 c-0.6343 2.79 -3.923 1.871 -6 2 l-1 0 c2.002 -4.214 2.448 -6.132 2.25 -13.75 l4.75 11.75 z"/>
<path style="fill:#b5cd85" d="M77 180 c5.232 0.9376 10.37 1.343 15 4 l1.75 3.75 c-11.64 1.125 -45.12 -4.899 -16.75 -7.75 z"/>
<path style="fill:#762e4d" d="M783 184 l-6 4 c-4.54 4.428 -2.628 11.17 -3 17 c-1.662 2.971 -1.662 10.03 0 13 c0.6706 2.113 -1.575 2.212 -3 2 l-1 -26 l2 -11 c0.6073 -1.236 2.558 -1.984 4 -2 c3.075 -1.668 6.281 -0.8172 7 3 z"/>
<path style="fill:#d68eb8" d="M768 181 c2.694 2.918 0.3478 7.932 -1 11 c-2.408 0.8567 -3.371 11.92 -4 5 l1 -9 l4 -7 z"/>
<path style="fill:#6f8c21" d="M450 183 c1.181 -0.1547 1.019 1.337 1 2 c4.463 8.473 -1.839 6.413 -5 7 c-1.551 0.06493 -4.707 -0.6824 -4 2 c-0.6634 0.01862 -2.155 0.1814 -2 -1 c-1.988 -1.998 0.8752 -3.324 2.75 -3.25 c-9.543 -0.4577 2.986 -6.108 7.25 -6.75 z"/>
<path style="fill:#c062ac" d="M783 184 c-0.9322 10.72 -4.175 22.84 -9 34 c-1.662 -2.971 -1.662 -10.03 0 -13 c-0.7919 16.64 6.274 -15.08 3 -17 l6 -4 z"/>
<path style="fill:#b9729e" d="M256 197 c-0.3052 4.353 -7.354 4.7 -6 10 c-1.442 0.01624 -3.393 0.764 -4 2 l-4 -4 l-1 -2 l6.25 -7.75 l5 -6 c14.34 -12.58 -18.49 26.91 -1.5 11.5 l5.25 -3.75 z"/>
<path style="fill:#7f5b62" d="M456 190 c-2.415 0.7313 2.202 8.267 -2 6 l-4 0 l-4 -4 c3.161 -0.5867 9.463 1.473 5 -7 l5 5 z"/>
<path style="fill:#d2978f" d="M229 204 c-1.655 8.747 -3.562 0.5362 -7 2 c-0.9023 -7.571 -5.686 -0.7223 -10 -1 l0 -1 l0 -8 c2.672 -5.993 1.655 1.599 2.25 4.75 l3 -12.5 c1.781 4.016 5.76 10.7 8.5 3 c1.748 3.536 -2.726 15.34 3.25 12.75 z"/>
<path style="fill:#7d524c" d="M265 188 l3 0 c-5.384 6.651 -11.2 13.54 -18 19 c-1.354 -5.3 5.695 -5.647 6 -10 l9 -9 z"/>
<path style="fill:#f499e0" d="M774 205 c0.372 -5.832 -1.54 -12.57 3 -17 c3.274 1.915 -3.792 33.64 -3 17 z"/>
<path style="fill:#2f140d" d="M212 196 l0 8 c-6.217 -10.6 -12.25 -8.383 -18 1 l-1 0 c-4.41 -4.668 4.633 -8.646 0 -12 c2.077 -0.1291 5.366 0.7902 6 -2 l9 -2 c4.192 0.548 -0.3247 7.438 4 7 z"/>
<path style="fill:#0e1805" d="M800 209 l0 56 c-7.363 -0.4608 -13.79 -3.314 -20.75 -0.75 c0.5081 19.82 -9.136 54.87 20.75 51.75 l0 129 c-42.3 8.082 -75.44 25.54 -120.8 35.25 l-4.5 21.5 c-2.885 4.234 -5.393 -4.57 -7.75 -0.75 c8.807 17.14 41.15 33.68 69 43 c13.03 -21.2 46.41 -37.14 64 -19 l0 75 l-51 0 c-0.1414 -20.24 -29.29 -1.487 -42 0 l-31 0 l8 -4 l-11.25 -18.75 c-26.38 4.835 -46.51 4.621 -63.75 22.75 l-19 0 c0.5502 -33.31 10.32 -57.1 3.25 -81.75 l-4.25 81.75 l-132 0 c28.37 0.9919 44.93 -20.39 47.25 -54.75 c25.04 22.62 16.71 -1.245 18.5 -38 c-64.05 -10.92 -29.62 56.66 -60.75 79.75 c-21.66 -31.98 -14.1 -29.78 4 -32 c-0.295 -8.794 -2.503 -18.33 -4.25 -25.75 c-3.212 20.32 -50.18 27.1 -27.5 38 c-26.01 5.571 -4.183 6.47 -0.5 15.5 c-42 1.041 -51.08 3.303 -57.75 17.25 l-376 0 l0 -26 c31.68 -12.44 37.54 -38.73 25.25 -65.75 c24.01 7.067 23.62 -10.4 30.5 -28 c-9.504 -0.6827 -26.84 6.405 -31.75 0.75 c19.2 1.163 36.65 -3.738 54 -9 l4 -1 c4.597 0.8218 -2.597 -4.822 2 -4 c6.463 1.605 14.56 -7.226 20 -12 c10.08 -0.09665 5.81 11.88 -3.75 14.25 l4.75 2.75 c-5.437 1.729 -11.74 -3.755 -15.75 1.25 c4.347 26.29 9.167 53.18 17 78.5 c25.31 3.531 44.74 3.079 66.5 -5 c-13.81 -33.77 -11.54 -41.55 -35.75 -75.75 l36 -1 c3.789 13.92 -12.99 45.93 10.25 58.75 c38.93 -10.16 38.15 -50.84 1.75 -60.75 c4.415 -3.532 -6.147 -5.99 -9 -7 c14.03 -5.251 33.82 -2.366 51 -11 c6.142 4.904 11.8 11.2 19 14 l5 5 c-9.187 5.514 -26.98 -0.001282 -37 6 l18 7 c6.475 1.668 12.94 3.352 20 3 l17 1 c0.4557 1.35 -0.6497 2.456 -2 2 l-12 3 l-1 1 l-15 9 c-40.64 19.62 -39.79 56.98 -8 45 c-10.28 18.16 17 21.98 52 3 c-13.7 -9.462 -22.26 -30.53 1.25 -18.25 c26.03 33.06 -71.8 54.25 -21 39 l0 13 c53.16 3.036 19.12 -84.11 10.75 -98.75 l1 -4 c-0.6555 -3.622 3.206 -4.349 5 -6 c5.148 2.192 11.9 -10.58 14 -17 l0 -2 c-0.7393 -1.87 3.453 -4.08 4 -2 c1.085 1.448 1.14 3.191 1 5 l-4.75 13.75 c6.279 -7.209 13.11 -13.34 17.75 -21.75 l3 -4 c-0.3336 -1.345 0.709 -2.737 2 -3 c27.24 -4.292 57.3 -30.36 83 -18 c-23.21 5.355 -50.25 15.48 -73 24 c-25.83 -2.016 -6.118 28.87 -8.75 44.75 c35.31 10.93 119 -11.65 66 -46 c36.98 -9.039 9.738 -35.92 -16 -43 c41.61 21.8 35.27 -27.1 31.5 -56.5 c-11.62 7.677 -51.52 27.87 -28.75 40.75 c4.986 1.826 -5.274 2.019 -6 4 c6.404 17.11 -76.62 -28.31 -60 23 c-3.989 7.039 -4.706 -2.107 -4 -6 c-0.5881 -7.055 -3.425 -9.394 -7.75 -3.25 c0.1809 -3.639 -0.183 -16.32 -5.25 -11.75 l-7 12 c-4.011 3.628 -11.62 7.396 -16 2 c0.2297 -1.831 -0.5013 -4.148 -2 -5 l6.75 -6.75 l-16.75 -4.25 l27 -5 c11.48 -2.498 9.646 -23.51 4 -24 c2.685 -13.78 -1.67 -26.07 -7 -46 c-9.694 -9.12 -28.13 -6.867 -36 -21 l-2 -3 c4.272 -3.116 12.87 7.324 20 7 c1.78 2.047 5.206 2.77 8 3 l15 3 c0.9471 -0.1898 2.944 0.592 3 -1 c3.095 -0.9677 7.123 -2.19 9 -5 l14 -10 c8.596 -2.607 11.91 -12.58 19 -15 l-2.75 4.75 c9.82 0.7311 20.03 1.591 28.75 0.25 c1.923 -0.5167 4.491 0.694 4 3 c-0.9899 8.001 23.87 18.2 12 8 c9.282 6.955 25.69 23.27 42 11 c6.878 -2.861 15.51 -7.481 21 -15 l6.75 -7.75 c0.373 8.392 5.51 0.8474 9.25 -0.25 c-8.737 10.36 -25.63 18.19 -18.75 29.75 c34.81 11.4 65.8 0.2104 93.75 -18.75 l8 47 c2.941 -13.4 4.974 -41.37 -7 -52 c-2.399 -11.21 -20.03 -13.02 -29 -21 l-4 -1 c7.985 -4.836 17.92 8.379 30.75 1.75 c-8.84 -5.827 15.94 -22.84 11 -9 l19.25 -24.75 c-0.1547 -1.181 1.337 -1.019 2 -1 l4 7 l0 2 l2 19 c4.257 41.63 45.57 38.03 81.75 46.25 l0 9.5 l-14.75 -0.75 c-6.731 0.7764 -13.61 1.045 -20 3 c-4.011 -0.1814 -7.409 1.731 -11 3 c-16.55 6.952 -56.76 2.3 -51.75 24.75 l9.5 -5 c-16.03 24.57 23.78 1.014 45 0.5 c0.6935 6.254 -10.96 7.277 -6.75 13.75 l-3 8 c-6.618 -7.583 -6.421 4.55 -8 9 l-2 7 c-5.069 15.94 -3.889 -24.75 -12 -16 l-4 8 l-14 16 l-11 14 c3.309 -14.89 5.536 -38.97 0 -50 l-4.75 2.75 c0.5995 -21.15 -13.23 -1.268 -18.25 0.25 c-0.3016 -2.107 -2.973 -0.3297 -3 1 c-3.227 13.81 -11.38 -16.22 -16 -10 c-9.884 -1.054 -27.89 -9.594 -40 -3 c-0.6634 -0.01862 -2.155 -0.1814 -2 1 c-14.83 -5.434 -25.4 15.33 -37 2 c-3.696 4.146 -3.046 13.05 -6.75 3.25 c0.04208 19.52 0.002563 39.8 3 58.5 l15.75 -0.75 c1.853 -0.3257 3.327 1.544 4 3 c-12.1 1.306 -27.58 2.394 -19.75 18.75 c9.867 0.8937 17.84 -9.691 21.75 -16.75 l25 19 c6.845 3.817 -3.955 2.826 -6 6 c-5.634 2.174 2.651 6.03 5 8 c-1.054 10.33 14.13 12.67 24 19 c-6.897 8.027 13.79 8.04 16 3 l13 -6 c0.6634 0.01862 2.155 0.1814 2 -1 c11.2 -3.118 -3.473 -4.521 6 -6 c16.69 -4.26 -7.742 11.52 7.75 13.75 l0.25 -5.75 c-1.484 -6.493 3.887 -3.351 7 -5 c5.787 0.1165 12.27 -0.1378 17 -2 c7.728 0.3795 15.29 -2.539 22 -4 l13 -2 c7.12 4.281 -10.44 2.687 -8 9 c3.357 23.08 22.49 9.262 29 -5 c1.99 -3.204 0.4896 -6.587 5 -7 l-10 -4 c23.99 2.611 24.46 -30.32 31 -49 c2.819 25.88 22.99 -0.4304 36.75 12.75 c3.679 -20.73 17.61 -48.87 -3.75 -45.75 c25.47 -11.47 8.693 -29.43 17.75 -39.75 c-13.1 8.608 -24.96 -2.432 -39.5 -2.5 c1.561 -10.02 11.85 -32 -0.25 -37.75 l-5 -4 c-2.723 -4.499 -12.42 -2.775 -14.75 -9.75 c14.05 0.827 11.82 -10.54 14 -22 l1.75 9.75 l7 -6 c2.867 8.866 9.15 16.85 16.75 22.75 c-7.462 -21.77 7.53 4.206 12 13 l10.25 -19.75 c2.052 -7.759 8.629 -2.285 10 -8 c9.06 1.301 11.27 25.41 15.25 33.75 c11.77 -9.252 16.18 -13.37 28.75 -16.75 c-10.33 14.94 26.79 -10.01 5 -4 l3 -3 l3 -3 c9.378 -3.425 26.98 -28.46 8 -17 l-6 2 l-7.75 2.75 c-0.6583 -1.684 0.7101 -8.868 -2.25 -5.75 l-8 10 l0 -8 c2.239 -8.376 4.302 -15.33 4 -24 c-2.653 -11.16 -15.91 12.82 -13 -4 c0.04053 -1.478 -3.041 -1.478 -3 0 c-7.568 1.313 -3.792 -14.54 -4.75 -20.75 c25.02 5.555 44.6 7.837 45 34.5 c15.46 -3.618 18.74 -24.49 22.75 -40.75 c7.885 4.719 -1.175 22.04 13 19 z"/>
<path style="fill:#a56262" d="M192 193 l1 0 c4.633 3.354 -4.41 7.332 0 12 l-2 2 c-4.833 -5.14 -5.709 -1.992 -10 -1 c-8.108 -1.398 -4.396 -11.75 0.25 -3.25 c5.884 0.8073 0.9197 -7.464 2 -10.5 c5.54 0.01335 4.987 9.811 8.75 0.75 z"/>
<path style="fill:#1c3104" d="M440 193 c-0.1547 1.181 1.337 1.019 2 1 c-0.3336 1.345 0.709 2.737 2 3 l1 2 c-1.199 3.767 -2.361 6.539 -5 9 c-21.24 9.347 -48.21 -2.938 -70 27 l-7 -4 c-5.994 -0.8752 -2.403 4.707 -3 8 c4.119 9.709 -11.86 10.72 -7.25 17.75 c-7.653 -4.202 -11.19 -12.33 -21.75 -9.75 l0 -3 l6 -11 c15.05 6.036 27.83 -10.19 35.25 -22.75 c5.058 -1.896 0.2716 4.197 3.5 4.5 c17.94 -15.3 40.31 -23.41 64.25 -21.75 z"/>
<path style="fill:#89256a" d="M446 192 l4 4 l27 34 c2.9 3.623 -4.22 -0.374 -1.25 3.25 c2.208 -0.2967 3.476 2.477 5 4.5 c-12.35 -4.442 -20.82 -15.02 -28.75 -23.75 l4 0 c10.98 11.9 -7.032 -16.6 -12 -17 c-1.291 -0.2628 -2.334 -1.655 -2 -3 c-0.7069 -2.682 2.449 -1.935 4 -2 z"/>
<path style="fill:#995d61" d="M767 192 l-4.25 22.75 c-3.469 -4.421 -1.694 -13.21 0.25 -17.75 c0.6289 6.919 1.592 -4.143 4 -5 z"/>
<path style="fill:#7c6133" d="M771 220 c-3.765 -0.6215 0.9869 3.595 -2.25 4.75 c-6.265 -9.886 0.03204 -19.91 1.25 -30.75 l1 26 z"/>
<path style="fill:#ad4c78" d="M212 204 l0 1 c-2.14 2.521 -7.365 6.324 -5 10 c-11.97 -11.89 -0.7458 11.63 -9 4 l-1 5 c-4.194 -4.765 5.586 -19.14 -3 -19 c5.751 -9.383 11.78 -11.6 18 -1 z"/>
<path style="fill:#ec90d6" d="M454 196 c13.19 12.71 26.87 29.09 36.75 44.75 l-13.75 -10.75 l-27 -34 l4 0 z"/>
<path style="fill:#ead1d3" d="M622 208 l-2 1 c-8.976 1.903 -18.69 4.678 -26 10 c-5.696 4.96 -0.4782 -6.741 2 -8 l28 -15 c11.68 -5.271 4.194 9.327 -2 12 z"/>
<path style="fill:#c876ab" d="M279 198 c-5.506 19.16 -11.37 48.19 -9.75 60.75 l1.75 -6.75 c-0.9865 6.605 2.953 9.586 6.75 6.25 c0.6914 4.327 -0.7173 9.135 2.25 12.75 c-9.399 -4.569 4.434 23.35 5 9 l-1 -6 l1.25 -5.75 c1.662 8.148 6.818 2.491 10.75 -0.25 l-1 2 l-7 14 c-0.9122 1.346 -1.07 3.594 -3 4 c-10.78 8.963 -11.71 3.157 -13 -6 c9.66 2.444 3.743 -8.345 -0.75 -14.75 c-2.088 3.126 3.926 6.531 0.75 8.75 c-1.293 -3.627 -4.087 -19.24 -5.75 -8.25 c2.105 -1.446 1.829 1.01 0.75 2.25 c-6.422 -9.507 -12.48 0.01483 -10 10 c-14.11 -20.16 -18.56 -4.2 -30 -32 c5.946 2.126 -0.8289 -4.411 2.25 -7.75 c17.58 18.94 1.561 -11.04 -8.25 -19.25 c6.545 1.094 6.324 -10.51 13.75 -10.75 c-2.988 6.727 3.522 4.185 -1.75 9.75 c-9.653 2.473 2.63 8.883 7 12 l5 7 c-13.49 6.371 19.07 44.32 11 16 c1.592 -0.05586 0.8102 -2.053 1 -3 c2.008 1.468 2.315 4.66 3 7 c6.724 13.44 -2.905 -18.16 4.75 -16.25 l0.25 -2.75 c3.91 -11.79 1.688 -42.27 14 -42 z"/>
<path style="fill:#c67da1" d="M456 214 l-11 -15 l-1 -2 c4.968 0.4037 22.98 28.9 12 17 z"/>
<path style="fill:#eacbdc" d="M279 198 c5.979 8.912 6.984 21.7 16.75 8.25 c2.567 8.553 3.265 18.1 10.25 6.75 l1 0 c-0.3822 16.42 1.176 33.74 -6 48 l-5 7 c-3.932 2.741 -9.088 8.398 -10.75 0.25 l-1.25 5.75 c-1.346 -0.9122 -3.594 -1.07 -4 -3 c-2.967 -3.615 -1.559 -8.423 -2.25 -12.75 c-3.797 3.336 -7.737 0.3548 -6.75 -6.25 l-1.75 6.75 c-1.618 -12.56 4.244 -41.59 9.75 -60.75 z"/>
<path style="fill:#3b4412" d="M655 224 c-1.908 -2.778 -1.954 -1.028 -2.25 1.75 c-7.562 -15.88 -11.55 14 -4.75 20.25 l-7 6 l-1.75 -9.75 c-2.185 11.46 0.04547 22.83 -14 22 c2.327 6.975 12.03 5.251 14.75 9.75 l-4 -1 c-6.395 0.5204 -12.69 -0.4181 -20 -5 c6.784 -4.807 21.51 -4.4 20 -18 c2.6 -16.59 8.125 -31.04 7 -47 c3.081 -3.448 1.068 4.298 2.75 4.75 c0.9932 -22.1 9.168 10.59 9.25 16.25 z"/>
<path style="fill:#445419" d="M456 214 l-4 0 c-3.175 -2.702 -7.145 -6.584 -12 -6 c2.639 -2.461 3.801 -5.233 5 -9 l11 15 z"/>
<path style="fill:#e593d9" d="M241 203 l1 2 l4 21 c-2.607 -7.842 -8.759 -15.64 -8 -25 l3 2 z"/>
<path style="fill:#eea6db" d="M222 206 l-14 10 l-1 -1 c-2.365 -3.676 2.86 -7.479 5 -10 c4.314 0.2777 9.098 -6.571 10 1 z"/>
<path style="fill:#793638" d="M191 207 c-1.913 5.195 -0.4549 10.31 2 15 c-1.35 2.711 -18.09 -14.6 -12.25 -12.75 c2.008 1.699 1.195 -2.528 0.25 -3.25 c4.291 -0.9917 5.167 -4.14 10 1 z"/>
<path style="fill:#735751" d="M319 204 l-4 6 l-3 3 c-3.495 7.338 -3.499 8.893 -5 0 l-1 0 l13 -9 z"/>
<path style="fill:#c0a6a9" d="M322 211 c-0.6628 2.235 0.7646 3.663 3 3 c2.682 -0.7069 1.935 2.449 2 4 l-1 1 c-2.753 -7.247 -11.81 8.112 -11 13 l-3 -19 l3 -3 c-2.352 3.656 -2.491 9.791 0.75 12.75 c5.148 -4.173 8.04 -14.75 3.25 -18.75 c3.999 -3.702 2.985 4.51 3 7 z"/>
<path style="fill:#6fa32a" d="M643 203 c1.125 15.96 -4.4 30.41 -7 47 c-6.215 -12.86 -10.03 -25.5 -9 -39 l0 -1 c4.543 -3.048 10.27 -6.374 16 -7 z"/>
<path style="fill:#7da633" d="M672 208 c2.946 2.154 7.018 4.753 11 5 c1.282 5.356 -4.854 2.416 -7 6 c4.788 -7.329 -3.167 -5.274 -7.75 -5.25 c-1.304 -6.353 -11.4 -5.729 -8.5 1 l-1.75 -0.75 c-10.1 -14.24 4.164 -9.226 14 -6 z"/>
<path style="fill:#e8e4d5" d="M315 210 l4 -6 c4.79 3.997 1.898 14.58 -3.25 18.75 c-3.241 -2.959 -3.102 -9.094 -0.75 -12.75 z"/>
<path style="fill:#e189cb" d="M194 205 c8.586 -0.1353 -1.194 14.24 3 19 l1 3 l-5 -5 c-2.455 -4.691 -3.913 -9.805 -2 -15 l2 -2 l1 0 z"/>
<path style="fill:#eec7de" d="M242 205 l4 4 c8.36 9.108 14.33 19.13 19 31 l-0.25 2.75 c-7.655 -1.913 1.974 29.69 -4.75 16.25 c-0.6853 -2.34 -0.9922 -5.532 -3 -7 l-11 -26 l-4 -21 z"/>
<path style="fill:#381810" d="M520 231 c-4.589 2.038 3.805 -14.57 -3 -5 l7 -13 l7 -6 l5.75 -0.75 c1.271 5.331 -4.435 6.404 -8.5 6 c8.321 12.34 -5.249 5.311 -8.25 18.75 z"/>
<path style="fill:#562748" d="M693 211 c-5.869 0.9307 -4.3 27.76 3 17 l1 10 c2.573 -7.395 7.264 -5.943 7 2 c0.7266 4.881 -3.69 23.19 2 15 c-4.725 0.6442 0.8317 -8.521 3 -3 l0 1 c-1.592 0.05586 -0.8102 2.053 -1 3 c-4.039 4.967 3.223 5.966 2.25 13.75 c2.857 -2.013 7.299 -6.328 7.75 -10.75 l2 -4 l0.25 12.75 c1.105 -5.382 9.06 -4.331 9.75 -11.75 l6 -11 l0 8 c-1.938 1.729 -3.834 4.262 -5 7 c-3.923 5.591 -9.306 10.37 -11.75 16.75 c7.94 -3.286 13.9 -13.31 18.75 -20.75 c2.548 -3.372 8.581 -8.833 6 -13 c2.96 -3.118 1.592 4.066 2.25 5.75 l7.75 -2.75 c-6.277 4.64 -10.82 16 -5 18 l-3 3 c-2.285 -0.1751 -3.943 2.318 -5 4 c-12.57 3.383 -16.98 7.498 -28.75 16.75 c-3.984 -8.344 -6.19 -32.45 -15.25 -33.75 c-3.62 -3.48 -5.842 -8.33 -5.25 -13.75 c-0.4095 8.011 -4.061 17.53 -4.5 4 c-5.312 9.403 -21.83 -1.562 -0.25 17.75 l-10.25 19.75 c-4.47 -8.794 -19.46 -34.77 -12 -13 c-7.6 -5.896 -13.88 -13.88 -16.75 -22.75 c-6.801 -6.253 -2.812 -36.13 4.75 -20.25 c0.2964 -2.778 0.3423 -4.528 2.25 -1.75 c0.7242 8.069 6.991 15.92 11.75 22.75 l0.25 -2.75 c3.236 13.08 5.174 -6.102 6 -12 c7.415 17.73 1.158 -16.64 11 -15 l-1 -4 c-3.982 -0.2474 -8.054 -2.846 -11 -5 l12.75 3.75 c0.4211 -6.437 6.933 -6.487 8.25 -0.75 z"/>
<path style="fill:#cf91ba" d="M586 223 l-2 3 l-26 14 l0 -2 c2.793 -4.601 5.078 -10.33 9.75 -14.25 l4 -8 c19.6 -23.74 -23.27 31.97 3.5 13.5 l10.75 -6.25 z"/>
<path style="fill:#3e610b" d="M440 208 c0.04224 2.948 2.277 5.202 5 6 c-1.492 7.988 22.29 17.05 11 19 c-5.232 -1.148 -9.443 -4.187 -15 -2 c-4.94 -0.5669 -14.81 0.6779 -13 -7 c-2.186 -15.38 -10.84 2.197 -16 4 c-1.716 4.644 8.416 4.436 7 7 l-2 0 l-5 -1 c-0.6584 -1.667 -5.028 -5.301 -5 -1 c-1.599 3.007 -2.461 0.6237 -4 -1 c-0.6017 -2.458 -1.58 -5.747 -4 -7 c-11.32 -10.84 -14.21 19.61 -15 29 l-14 -19 c21.79 -29.94 48.76 -17.65 70 -27 z"/>
<path style="fill:#3c4b1a" d="M622 208 c-2.149 4.842 2.059 1.341 5 2 l0 1 l-5.75 3.25 c3.193 12.83 -10.59 6.366 -17.25 15.75 l2 -3 l5 -6 l9 -12 l2 -1 z"/>
<path style="fill:#c788b8" d="M620 209 l-9 12 c-5.674 -1.599 -13.01 3.204 -19 5 c-3.887 -2.935 7.318 -5.463 2 -7 c7.307 -5.322 17.02 -8.097 26 -10 z"/>
<path style="fill:#5e930e" d="M676 219 l-3 13 c-0.826 5.898 -2.764 25.08 -6 12 c-1.765 -10.49 -5.323 -20.15 -9 -30 l1.75 0.75 c-2.9 -6.729 7.196 -7.353 8.5 -1 c4.583 -0.02429 12.54 -2.079 7.75 5.25 z"/>
<path style="fill:#a85c8c" d="M594 210 c-0.1547 1.181 1.337 1.019 2 1 c-2.478 1.259 -7.696 12.96 -2 8 c5.318 1.537 -5.887 4.065 -2 7 c-5.594 2.639 -16.05 8.184 -16 14 l-15.75 10.75 c4.307 -10.46 17.92 -15.2 23.75 -24.75 l2 -3 c2.33 -4.645 1.247 -10.21 8 -13 z"/>
<path style="fill:#b06194" d="M693 211 c2.659 4.016 2.714 8.903 8 9 c-5.645 -0.6672 -2.8 5.783 -5 8 c-7.3 10.76 -8.869 -16.07 -3 -17 z"/>
<path style="fill:#78385a" d="M207 215 l1 1 c12.12 -4.028 1.078 15.58 10.75 13.25 l2.25 5.75 l-19 -1 c4.258 -0.2079 -1.702 -6.985 -4 -7 l-1 -3 l1 -5 c8.254 7.628 -2.965 -15.89 9 -4 z"/>
<path style="fill:#4d7608" d="M627 211 c-1.032 13.5 2.785 26.14 9 39 c1.514 13.6 -13.22 13.19 -20 18 c7.308 4.582 13.6 5.52 20 5 c-14.86 8.881 15.84 32.31 9 5 c12.1 5.752 1.811 27.73 0.25 37.75 c14.54 0.06757 26.4 11.11 39.5 2.5 c-9.057 10.32 7.724 28.28 -17.75 39.75 c21.36 -3.12 7.429 25.02 3.75 45.75 c-13.76 -13.18 -33.93 13.13 -36.75 -12.75 l1 -11 l0.25 -3.75 c-0.1094 -7.84 -8.185 17.43 -7.25 3.75 c0.7564 -20.03 -6.506 -30.28 -15 -43 l-6 7 c-3.385 1.541 -2.495 10.98 -7 8 l0 -1 c-0.8384 -4.948 -6.888 0.8975 -8 3 c-4.206 -6.473 7.444 -7.496 6.75 -13.75 c-21.22 0.5138 -61.03 24.07 -45 -0.5 l-9.5 5 c-5.006 -22.45 35.2 -17.8 51.75 -24.75 c25.4 3.097 49.47 17.24 79.75 8.75 c1.802 -3.13 -2.418 -5.991 -4.75 -3.75 c-12.06 -8.371 -28.74 -6.844 -43 -10 l-1 -1 l14.75 0.75 l0 -9.5 c-36.18 -8.224 -77.49 -4.619 -81.75 -46.25 c14.95 -9.097 30.36 -18.29 44 -29 c6.66 -9.384 20.44 -2.916 17.25 -15.75 l5.75 -3.25 z"/>
<path style="fill:#62374c" d="M167 214 l16 8 l19 12 c-0.4832 6.749 -10.02 3.324 -14 2 c-0.656 -2.944 -16.05 -10.08 -19 -18 l-14 -2 c-8.21 -1.433 -19.21 -2.294 -27 0 l-1 -1 c10.32 -5.25 27.76 1.843 40 -1 z"/>
<path style="fill:#ce74b6" d="M312 213 l3 19 l-15 49 l1 -8 c-2.185 -4.086 4.242 -10.79 0 -12 c7.176 -14.26 5.618 -31.58 6 -48 c1.501 8.893 1.505 7.338 5 0 z"/>
<path style="fill:#be6598" d="M549 222 l-10 18 c-5.203 -5.014 -2.601 -9.234 -4 -17 l0 -5 c2.506 3.166 1.706 8.481 2.25 12.75 c5.6 -3.126 1.86 -9.259 2.75 -14.75 c3.552 -8.112 0.1799 16.78 4.75 2.25 c0.08533 4.521 0.06744 6.339 4.25 3.75 z"/>
<path style="fill:#814961" d="M673 232 l3 -13 c2.146 -3.584 8.282 -0.6438 7 -6 l1 4 c-9.842 -1.638 -3.585 32.73 -11 15 z"/>
<path style="fill:#856381" d="M155 216 c-5.687 1.58 -15.31 -1.941 -17 4 l-10 -4 c7.791 -2.294 18.79 -1.433 27 0 z"/>
<path style="fill:#6f613e" d="M460 234 l-4 0 l0 -1 c11.29 -1.945 -12.49 -11.01 -11 -19 l19 19 l-4 1 z"/>
<path style="fill:#693346" d="M517 226 c6.805 -9.569 -1.589 7.038 3 5 c3.675 4.867 -7.179 8.486 -3 13 c6.381 18.75 13.47 -24.57 17.25 -7.25 c3.92 1.717 -2.251 2.77 0.75 4.25 c-8.011 10.09 -0.9651 9.342 4 -1 l10 -18 l0 -1 l1 0 c1.847 2.712 -3.57 8.527 2 11 l-19.25 24.75 c4.937 -13.84 -19.84 3.173 -11 9 c-12.83 6.629 -22.77 -6.586 -30.75 -1.75 c-14.89 -6.914 -29.26 -15.51 -41 -27 l18 5 l20 10 c3.282 2.484 7.874 4.755 12 6 c0.9055 2.918 16.99 9.272 12 4 c-1.656 -7.802 -15.6 -21.35 -0.25 -22.25 c-6.181 -2.427 -4.464 -9.251 -4.75 -15.75 c-1.544 -1.939 -1.931 -12.36 0.75 -8.25 c3.89 -4.468 5.406 22.36 8 12.5 c1.42 1.742 1.37 -1.42 1.25 -2.25 z"/>
<path style="fill:#4f1e28" d="M540 216 c-0.89 5.491 2.85 11.62 -2.75 14.75 c-0.5436 -4.269 0.2557 -9.584 -2.25 -12.75 c-0.939 -5.858 1.721 -1.824 5 -2 z"/>
<path style="fill:#39430d" d="M127 215 l1 1 l10 4 l4 2 l6 3 c-0.09288 4.175 5.747 16.71 -3 23 c10.77 -16.63 -4.999 -27.77 -20 -32 c-0.1547 -1.181 1.337 -1.019 2 -1 z"/>
<path style="fill:#b17a9d" d="M155 216 l14 2 l-27 4 l-4 -2 c1.688 -5.941 11.31 -2.42 17 -4 z"/>
<path style="fill:#f5cce5" d="M326 219 l-3 17 c-2.249 12.48 -15.19 41.07 -24 48 c0.1898 -0.9471 -0.592 -2.944 1 -3 l15 -49 c-0.8096 -4.888 8.247 -20.25 11 -13 z"/>
<path style="fill:#ae4c93" d="M740 221 c-12.81 -0.7049 -4.128 15.87 -14.75 18.75 c-1.222 -6.952 3.902 -18.08 -1.25 -22.75 c-0.04053 -1.478 3.041 -1.478 3 0 c-2.908 16.82 10.35 -7.164 13 4 z"/>
<path style="fill:#875e68" d="M428 224 c-5.026 -10.76 -7.129 9.48 -16 4 c5.164 -1.803 13.81 -19.38 16 -4 z"/>
<path style="fill:#f0badc" d="M740 221 c0.3025 8.67 -1.761 15.62 -4 24 l-6 11 c-9.431 5.695 -5.551 -14.95 -10 -2 l-8.75 4.75 c0.4531 -2.941 0.2686 -5.568 -2.25 -5.75 l0 -1 c-2.522 -3.949 1.624 -24.82 15 -34 l0 -1 c5.152 4.669 0.02777 15.8 1.25 22.75 c10.62 -2.881 1.937 -19.45 14.75 -18.75 z"/>
<path style="fill:#d49cb4" d="M169 218 c2.95 7.918 18.34 15.06 19 18 l-40 -11 l-6 -3 l27 -4 z"/>
<path style="fill:#3a2c1b" d="M332 225 l-2 4 l-7 7 l3 -17 l1 -1 c3.566 1.264 -0.763 7.253 5 7 z"/>
<path style="fill:#945473" d="M724 218 c-13.38 9.184 -17.52 30.05 -15 34 c-2.168 -5.521 -7.725 3.644 -3 3 c-5.69 8.188 -1.273 -10.12 -2 -15 l1 -8 c3.451 7.428 4.442 -3.939 7 -7 c2.841 -3.729 7.19 -6.292 12 -7 z"/>
<path style="fill:#452b2a" d="M240 232 c-4.37 -3.117 -16.65 -9.527 -7 -12 c5.888 -2.19 4.927 8.286 7 12 z"/>
<path style="fill:#efc7dd" d="M338 227 l-12 22 l4 -20 l2 -4 c4.67 -4.611 12.3 -6.686 6 2 z"/>
<path style="fill:#d4bab6" d="M428 224 c-1.812 7.678 8.06 6.433 13 7 c3.205 0.7142 6.149 3.625 9 6 c11.74 11.49 26.11 20.09 41 27 l4 1 l-24 -7 l-33.75 -13.75 l-1.25 8.75 c3.85 -12.19 -10.77 -12.47 -17 -18 c1.416 -2.564 -8.716 -2.356 -7 -7 c8.871 5.48 10.97 -14.76 16 -4 z"/>
<path style="fill:#8e4366" d="M507 224 c0.2858 6.499 -1.431 13.32 4.75 15.75 c-15.35 0.8989 -1.406 14.45 0.25 22.25 l-7 -6 l-3 -6 c1.923 -7.508 -1.128 -18.83 -7 -20 c3.702 -5.932 2.261 -11.84 12 -6 z"/>
<path style="fill:#f0b7e0" d="M611 221 l-5 6 l-4 2 c-7.245 -1.519 -15.76 2.668 -21 8 l-5 3 c-0.05481 -5.816 10.41 -11.36 16 -14 c5.992 -1.796 13.33 -6.599 19 -5 z"/>
<path style="fill:#d488be" d="M701 220 c2.308 3.14 2.834 8.045 4 12 l-1 8 c0.2642 -7.943 -4.427 -9.395 -7 -2 l-1 -10 c2.2 -2.217 -0.645 -8.667 5 -8 z"/>
<path style="fill:#a05183" d="M399 225 c-4.096 -0.9816 0.09616 5.982 -4 5 c-9.294 -3.858 -3.696 20.75 -5.75 28.75 c12.41 -2.187 15.07 10.31 21.5 13 c7.134 -10.84 4.443 -25.94 1.25 -37.75 l5 1 c6.198 16.36 1.379 34.38 5.25 44.75 c5.723 -6.111 11.22 -14.79 12.75 -22.75 c-0.01862 0.6634 -0.1814 2.155 1 2 c0.5487 11.39 -8.965 19.78 -11.75 29.75 l4.75 -3.75 l24 -27 l7 -2 c-2.092 7.244 -6.669 15.26 4 9 l-16 15 c-3.74 1.097 -8.877 8.642 -9.25 0.25 l-6.75 7.75 c-7.114 4.223 -15.28 8.433 -21 15 c1.158 -9.378 0.2362 -11.4 -3 -21 l-9 10 c-3.618 -5.097 3.18 -13.63 -0.25 -22.75 c-3.767 2.177 -4.487 1.739 -5.75 7.75 c1.19 -11.2 -9.276 -10.52 -9 -23 c0.7866 -9.394 3.682 -39.84 15 -29 z"/>
<path style="fill:#923d72" d="M535 223 c1.399 7.766 -1.203 11.99 4 17 c-4.965 10.34 -12.01 11.09 -4 1 c-3.001 -1.48 3.17 -2.533 -0.75 -4.25 c-3.778 -17.32 -10.87 26 -17.25 7.25 c11.78 3.403 12.64 -22.45 18 -21 z"/>
<path style="fill:#0e1106" d="M148 225 l40 11 c3.977 1.324 13.52 4.749 14 -2 l19 1 c15.21 26.57 -23.98 -5.545 -18 13 l4 5 c3.698 8.596 -8.083 4.816 -7 1 c0.3567 -5.456 -12.86 -3.307 -18 -3 c-8.075 -0.7638 -14.73 6.705 -17 13 c-11.19 -16.23 -64.16 13.27 -47.75 41.75 c25.48 13.94 47.08 -0.5798 79.5 7 c1.906 -4.406 -1.764 -7.748 -4.75 -9.75 c9.774 0.4806 19.8 17.75 25 23 c-42.69 0.5888 -101.7 1.715 -142 30 l-4 -4 c-8.761 -7.742 -8.053 30.91 -11 10 c-2.979 -29.26 -37.19 -27.81 -60 -35 l0 -8 c16.87 0.3854 5.101 -15.71 0 -23 l0 -19 c30.08 6.35 58.2 6.781 88.75 -0.25 c-0.7905 -12.14 -10.56 -22.67 -17.5 -31.5 c27.05 10.13 47.26 38.49 73.75 2.75 c8.747 -6.288 2.907 -18.83 3 -23 z"/>
<path style="fill:#ca8eb5" d="M399 225 c2.42 1.253 3.398 4.542 4 7 c-2.334 -0.9469 -4.191 0.6856 -4 5 l-4 -7 c4.096 0.9816 -0.09616 -5.982 4 -5 z"/>
<path style="fill:#6c3856" d="M584 226 c-5.831 9.551 -19.44 14.29 -23.75 24.75 l15.75 -10.75 l5 -3 c6.362 -0.7631 15.87 -2.673 21 -8 l4 -2 l-2 3 c-13.64 10.71 -29.05 19.9 -44 29 l-2 -19 l26 -14 z"/>
<path style="fill:#c07ea3" d="M338 227 l-1 6 l-6 11 l-5 5 l12 -22 z"/>
<path style="fill:#e7aed5" d="M395 230 l4 7 l4.75 8.75 l3.25 -12.75 c-0.02832 -4.301 4.342 -0.6674 5 1 c3.193 11.81 5.884 26.91 -1.25 37.75 c-6.425 -2.688 -9.088 -15.19 -21.5 -13 c2.054 -8.003 -3.544 -32.61 5.75 -28.75 z"/>
<path style="fill:#a75ea0" d="M602 229 c-5.128 5.327 -14.64 7.237 -21 8 c5.237 -5.332 13.76 -9.519 21 -8 z"/>
<path style="fill:#d37bb2" d="M330 229 l-4 20 l-20 33 c-4.122 5.025 -11.68 17.94 -15 17 l4 -6 l4 -9 c8.805 -6.926 21.75 -35.52 24 -48 l7 -7 z"/>
<path style="fill:#93567e" d="M456 233 l0 1 l12 8 l-18 -5 c-2.851 -2.375 -5.795 -5.286 -9 -6 c5.557 -2.187 9.768 0.8524 15 2 z"/>
<path style="fill:#b3949c" d="M363 231 c-1.693 5.764 5.548 17.67 0 19 l-3 -11 c0.5966 -3.293 -2.994 -8.875 3 -8 z"/>
<path style="fill:#743663" d="M370 235 l14 19 c-0.2762 12.48 10.19 11.8 9 23 c1.263 -6.011 1.983 -5.573 5.75 -7.75 c3.43 9.118 -3.368 17.65 0.25 22.75 c-4.83 10.5 0.8212 -1.703 3.75 3.75 c-0.7042 2.851 -2.834 7.529 -2 11 c-22.49 -14.62 -37.31 -19.74 -57.5 -42.5 c9.569 0.9306 4.365 7.034 16.75 7.75 c19.95 17.85 5.118 -10.17 3 -22 c5.548 -1.325 -1.693 -13.24 0 -19 l7 4 z"/>
<path style="fill:#9d5c89" d="M403 232 c1.539 1.624 2.401 4.007 4 1 l-3.25 12.75 l-4.75 -8.75 c-0.1908 -4.314 1.666 -5.947 4 -5 z"/>
<path style="fill:#e5abca" d="M456 234 l4 0 c9.305 3.237 22.12 12.34 28 18 l-20 -10 l-12 -8 z"/>
<path style="fill:#eecbdd" d="M419 235 c6.228 5.529 20.85 5.805 17 18 l-1 4 c-1.529 7.959 -7.027 16.64 -12.75 22.75 c-3.871 -10.37 0.9476 -28.39 -5.25 -44.75 l2 0 z"/>
<path style="fill:#e4a4d0" d="M245 239 c4.259 4.542 8.733 10.15 11 16 c8.068 28.32 -24.49 -9.629 -11 -16 z"/>
<path style="fill:#466012" d="M363 250 c2.118 11.83 16.95 39.85 -3 22 c-4.964 -6.022 -16.08 -13.47 -24 -12 c-6.71 3.254 -13.28 9.137 -18 15 c-3.73 1.806 -6.095 5.121 -9 8 l-2 -1 l24 -35 c10.56 -2.577 14.1 5.548 21.75 9.75 c-4.608 -7.027 11.37 -8.041 7.25 -17.75 l3 11 z"/>
<path style="fill:#3c1319" d="M697 254 c-1.371 5.715 -7.948 0.2414 -10 8 c-21.58 -19.31 -5.062 -8.347 0.25 -17.75 c0.439 13.53 4.091 4.011 4.5 -4 c-0.5923 5.42 1.63 10.27 5.25 13.75 z"/>
<path style="fill:#e0dbbf" d="M752 261 c-0.2432 -5.287 9.775 -9.866 8 -17 c18.98 -11.46 1.378 13.57 -8 17 z"/>
<path style="fill:#c382b2" d="M744 243 c2.581 4.167 -3.452 9.628 -6 13 l-7 4 c1.166 -2.738 3.062 -5.271 5 -7 l8 -10 z"/>
<path style="fill:#905361" d="M331 244 l0 3 l-24 35 l-1 0 l20 -33 l5 -5 z"/>
<path style="fill:#767238" d="M471 258 l-2 1 c-2.302 -1.409 -5.697 -3.398 -9 -3 l-7 2 c0.3057 -4.688 -8.791 6.831 -6 -1 c3.955 -11.84 -8.314 -3.676 -11 2 c-1.181 0.1547 -1.019 -1.337 -1 -2 l1 -4 l1.25 -8.75 l33.75 13.75 z"/>
<path style="fill:#84697f" d="M760 244 c1.775 7.134 -8.243 11.71 -8 17 l-3 3 c-5.825 -2.001 -1.277 -13.36 5 -18 l6 -2 z"/>
<path style="fill:#d28b9a" d="M497 247 l5 3 l3 6 c-2.176 -1.172 -3.79 -2.53 -5 0 c-3.786 -5.64 -17.37 -13.38 -3 -9 z"/>
<path style="fill:#d276c4" d="M220 264 l-7 -4 c-0.3026 -3.054 -3.77 -5.217 -6 -7 l-4 -5 c7.423 2.774 12.45 10.83 17 16 z"/>
<path style="fill:#a5558f" d="M730 256 c-0.69 7.419 -8.645 6.368 -9.75 11.75 l-0.25 -12.75 l0 -1 c4.449 -12.95 0.5687 7.695 10 2 z"/>
<path style="fill:#bab3aa" d="M200 254 c-1.686 0.1338 -6.374 -0.8218 -4 2 l-4 1 c-1.658 -4.96 -10.67 -0.3142 -10 -6 c5.137 -0.3074 18.36 -2.456 18 3 z"/>
<path style="fill:#f1c3e0" d="M447 257 l-18 28 l-4.75 3.75 c2.785 -9.968 12.3 -18.36 11.75 -29.75 c2.686 -5.676 14.96 -13.84 11 -2 z"/>
<path style="fill:#3c6b08" d="M182 251 c-0.6662 5.686 8.342 1.04 10 6 l1 2 l-7 15 c-10.97 -2.277 -11.74 7.553 -2 9 c1.635 7.159 -5.742 10.87 -11.75 15.75 c9.177 -1.191 13 -3.138 19.75 4.25 c2.986 2.002 6.656 5.344 4.75 9.75 c-32.42 -7.58 -54.02 6.938 -79.5 -7 c-16.41 -28.48 36.56 -57.98 47.75 -41.75 c2.274 -6.295 8.925 -13.76 17 -13 z"/>
<path style="fill:#5f3d43" d="M213 260 c4.673 10.36 -4.881 -1.621 -9 1 l-8 -5 c-2.374 -2.822 2.314 -1.866 4 -2 c-1.083 3.816 10.7 7.596 7 -1 c2.23 1.783 5.697 3.946 6 7 z"/>
<path style="fill:#c07ea2" d="M709 253 c2.519 0.1822 2.703 2.809 2.25 5.75 l8.75 -4.75 l0 1 l-2 4 c-5.521 7.989 -8.05 3.416 -10 -3 c0.1898 -0.9471 -0.592 -2.944 1 -3 z"/>
<path style="fill:#b27a6f" d="M505 256 l7 6 c4.991 5.272 -11.09 -1.082 -12 -4 l0 -2 c1.21 -2.53 2.824 -1.172 5 0 z"/>
<path style="fill:#c671b9" d="M204 261 l18.75 16.75 l-22.75 -13.75 l-7 -5 l-1 -2 l4 -1 l8 5 z"/>
<path style="fill:#c16ea3" d="M453 258 l-24 27 l18 -28 c-2.791 7.831 6.306 -3.688 6 1 z"/>
<path style="fill:#efdcd3" d="M469 259 l-5 6 c-10.67 6.255 -6.092 -1.756 -4 -9 c3.303 -0.3978 6.698 1.591 9 3 z"/>
<path style="fill:#884c66" d="M708 256 c1.95 6.416 4.479 10.99 10 3 c-0.4514 4.422 -4.893 8.737 -7.75 10.75 c0.9733 -7.784 -6.289 -8.783 -2.25 -13.75 z"/>
<path style="fill:#894a7e" d="M738 256 c-4.85 7.444 -10.81 17.46 -18.75 20.75 c2.444 -6.379 7.827 -11.16 11.75 -16.75 l7 -4 z"/>
<path style="fill:#4a7a07" d="M471 258 l24 7 c8.973 7.983 26.6 9.789 29 21 c0.14 1.809 0.08466 3.552 -1 5 c-27.95 18.96 -58.94 30.15 -93.75 18.75 c-6.884 -11.56 10.01 -19.39 18.75 -29.75 l16 -15 l5 -6 l2 -1 z"/>
<path style="fill:#20320b" d="M200 264 l7.75 8.75 l-18.75 1.25 l-3 0 l7 -15 l7 5 z"/>
<path style="fill:#4d2337" d="M360 272 c-12.39 -0.716 -7.181 -6.819 -16.75 -7.75 c20.19 22.76 35.01 27.88 57.5 42.5 c-0.8336 -3.471 1.296 -8.149 2 -11 c-2.929 -5.453 -8.58 6.746 -3.75 -3.75 l9 -10 c3.236 9.603 4.158 11.62 3 21 c-16.31 12.27 -32.72 -4.045 -42 -11 l-12 -8 c0.4912 -2.306 -2.077 -3.517 -4 -3 c-7.578 -8.805 -18.88 -21.36 -26 -5 c-7.092 2.416 -10.4 12.39 -19 15 l7 -7 l21 -24 c7.917 -1.473 19.04 5.978 24 12 z"/>
<path style="fill:#de9ac0" d="M336 260 l-21 24 l3 -9 c4.717 -5.863 11.29 -11.75 18 -15 z"/>
<path style="fill:#c567b5" d="M220 264 c3.036 -7.052 16.17 12.05 20.75 16.75 c-7.901 -0.8019 -12.23 -12.37 -20.75 -16.75 z"/>
<path style="fill:#8a2f76" d="M301 261 c4.242 1.212 -2.185 7.914 0 12 c-1.292 3.435 -9.17 5.249 -6 -3 l1 -2 l5 -7 z"/>
<path style="fill:#426e06" d="M800 265 l0 51 c-29.89 3.116 -20.24 -31.93 -20.75 -51.75 c6.958 -2.564 13.39 0.2892 20.75 0.75 z"/>
<path style="fill:#9a224a" d="M272 276 c-2.298 5.339 -5.027 -3.073 -5 -6 c1.079 -1.24 1.355 -3.696 -0.75 -2.25 c1.663 -10.99 4.457 4.623 5.75 8.25 z"/>
<path style="fill:#3f5f09" d="M353 281 c-8.722 1.341 -18.93 0.4811 -28.75 -0.25 l2.75 -4.75 c7.123 -16.36 18.42 -3.805 26 5 z"/>
<path style="fill:#3a580e" d="M741 271 c1.057 -1.682 2.715 -4.175 5 -4 c21.79 -6.012 -15.33 18.94 -5 4 z"/>
<path style="fill:#355d07" d="M741 301 c-3.415 2.991 25.89 6.914 16 -1 c-2.487 -3.093 -5.985 3.35 -8 0 c6.223 -7.492 23.29 -11.36 23 -21 c1.271 -10.04 -23.76 5.307 -13.25 -3.25 c4.663 -2.379 9.054 -5.85 13 -9.5 c21.67 62.58 -39.27 144.3 -64.75 96.75 c-10.93 0.04031 34.27 -27.79 -7.75 -30.75 c-20.45 -6.668 12.94 -24.58 41.75 -31.25 z"/>
<path style="fill:#aa4030" d="M280 271 c0.4057 1.93 2.654 2.088 4 3 l1 6 c-0.5656 14.35 -14.4 -13.57 -5 -9 z"/>
<path style="fill:#b04e96" d="M295 270 c-3.17 8.249 4.708 6.435 6 3 l-1 8 c-1.592 0.05585 -0.8102 2.053 -1 3 l-4 9 c-5.485 1.706 -0.2797 -10.06 -7 -9 l7 -14 z"/>
<path style="fill:#e0d4cd" d="M239 294 l2 3 l-16 -2 l-9 -2 c-1.478 -1.585 -4.542 -2.142 -7 -2 l-25 -8 c-9.735 -1.447 -8.97 -11.28 2 -9 l3 0 c21.33 -5.697 34.46 8.663 50 20 z"/>
<path style="fill:#86b50e" d="M636 273 l4 1 l5 4 c6.839 27.31 -23.86 3.881 -9 -5 z"/>
<path style="fill:#9f5e69" d="M318 275 l-3 9 l-7 7 l-14 10 l15 -18 c2.905 -2.879 5.27 -6.194 9 -8 z"/>
<path style="fill:#6d1f57" d="M267 304 c-2.794 -0.2297 -6.22 -0.9525 -8 -3 c-1.289 -9.401 -1.03 -13.89 6 -24 c10.61 11.37 1.357 23.04 2 27 z"/>
<path style="fill:#562c1c" d="M307 282 l2 1 l-15 18 c-1.877 2.81 -5.905 4.032 -9 5 l6 -7 c3.321 0.9391 10.88 -11.98 15 -17 l1 0 z"/>
<path style="fill:#4f760a" d="M655 282 c9.437 6.246 26.07 3.014 28.75 16.75 c-13.07 11.72 -28.19 -2.471 -28.75 -16.75 z"/>
<path style="fill:#303f04" d="M184 283 l25 8 l-5 2 l-3.75 1.25 c19.52 -7.95 5.015 15.76 16 15.5 c6.243 2.698 -2.611 -2.849 1.75 -4.75 c-9.637 -3.881 -0.4979 -5.432 -2 -12 l9 2 c9.599 14.22 1.814 37.18 20.75 27.25 c2.275 14.3 26.56 15.87 23.5 0 c7.025 5.374 10 10.01 7.75 -4.25 c5.33 19.93 9.685 32.22 7 46 c-1.346 -0.9122 -3.594 -1.07 -4 -3 c8.735 -17.87 -25.39 -2.628 -20 -22 c3.975 6.769 12.97 9.619 19.75 10.75 c4.336 -15.69 -14.7 -20.74 -19.75 -10.75 c-3.763 1.491 -7.624 2.626 -12 2 c-0.7369 -9.637 -4.179 -8.63 -12.75 -5.75 c8.957 18.93 2.574 64.29 30.75 51.75 l14 1 l-27 5 c-6.358 -2.706 -0.3949 20.44 3 12 l0 3 l0 1 l-2 7 l-15.75 -60.75 c-3.738 20.05 16.33 58.43 9.75 64.75 l-8 -7 c0.2273 -18.18 -7.894 -26.96 -25.75 -24.25 c4.309 -1.285 14.7 -1.775 19.5 0 c-5.647 -20.59 -4.874 -47.92 -16.75 -62.75 c-5.204 -5.25 -15.23 -22.52 -25 -23 c-6.748 -7.388 -10.57 -5.441 -19.75 -4.25 c6.008 -4.879 13.39 -8.591 11.75 -15.75 z"/>
<path style="fill:#602a4b" d="M295 293 l-4 6 l-6 7 c-0.05585 1.592 -2.053 0.8102 -3 1 c-2.247 -8.138 -5.194 -12.98 3 -19 c1.93 -0.4057 2.088 -2.654 3 -4 c6.72 -1.06 1.515 10.71 7 9 z"/>
<path style="fill:#3d470f" d="M369 292 c11.87 10.2 -12.99 0.0008545 -12 -8 l12 8 z"/>
<path style="fill:#3f6d04" d="M319 285 c14.97 2.164 44.34 0.519 42.75 20.75 c-19.53 18.42 -45.29 25.79 -70.75 29.25 c-22.3 -24.49 14.8 -33.66 28 -50 z"/>
<path style="fill:#49490a" d="M523 291 c1.085 -1.448 1.14 -3.191 1 -5 c11.97 10.63 9.941 38.6 7 52 l-8 -47 z"/>
<path style="fill:#441926" d="M432 288 c-5.486 7.519 -14.12 12.14 -21 15 c5.724 -6.567 13.89 -10.78 21 -15 z"/>
<path style="fill:#496c0f" d="M216 293 c1.502 6.568 -7.637 8.119 2 12 c-4.361 1.901 4.493 7.448 -1.75 4.75 c-10.98 0.2565 3.519 -23.45 -16 -15.5 l3.75 -1.25 l5 -2 c2.458 -0.1415 5.522 0.4151 7 2 z"/>
<path style="fill:#437506" d="M241 297 c7.867 14.13 26.31 11.88 36 21 c2.252 14.26 -0.7248 9.624 -7.75 4.25 c3.057 15.87 -21.22 14.3 -23.5 0 c-18.94 9.929 -11.15 -13.03 -20.75 -27.25 l16 2 z"/>
<path style="fill:#4d7910" d="M0 319 l0 -23 c5.101 7.291 16.87 23.39 0 23 z"/>
<path style="fill:#5d733f" d="M741 301 l8 -1 c2.015 3.35 5.513 -3.093 8 0 c9.894 7.914 -19.41 3.991 -16 1 z"/>
<path style="fill:#47283b" d="M375 303 c4.009 2.445 7.668 5.768 12.75 5.25 c45.64 7.648 -58.58 14.25 -12.75 -5.25 z"/>
<path style="fill:#395407" d="M565 303 c13.17 0.4195 10.06 18.24 1.25 11.75 c1.508 0.8341 4.087 1.108 4.5 3 c-12.18 4.733 -29.9 -8.255 -5.75 -14.75 z"/>
<path style="fill:#356311" d="M792 324 c-6.768 -0.9295 -22.08 13.34 -9.25 8.25 c-6.113 7.511 12.23 5.785 13.25 1.75 l0 -2 c4.456 5.264 -6.376 15.3 -6 7 l-5.75 0.25 c3.593 2.417 -1.571 6.632 -4.25 3.75 c-8.916 3.237 -3.706 -54.34 12 -19 z"/>
<path style="fill:#b1d09d" d="M627 314 l1 1 c10.03 6.85 24.78 3.72 36 8 c-3.753 1.851 -7.668 0.8102 -11 -1 c-16.13 0.1371 15.51 7.432 14 3 l4 0 c3.145 7.342 -11.18 3.53 -15 2 c-17.5 -1.339 -32.11 -10.98 -51 -8 l2 -2 c6.391 -1.955 13.27 -2.224 20 -3 z"/>
<path style="fill:#463e33" d="M176 318 c-3.574 0.7756 -13.81 -3.881 -13 1 c-23.08 -2.961 5.033 -6.621 13 -1 z"/>
<path style="fill:#72994d" d="M671 325 l-4 0 l-3 -2 c-11.22 -4.28 -25.97 -1.15 -36 -8 c14.26 3.156 30.94 1.629 43 10 z"/>
<path style="fill:#756854" d="M176 318 c8.523 0.05701 18.17 0.5651 24.75 4.75 c-10.61 5.089 -25.37 -3.277 -37.75 -3.75 c-0.8109 -4.881 9.426 -0.2244 13 -1 z"/>
<path style="fill:#64933b" d="M607 317 l-2 2 c17.68 -1.72 34.76 10.76 51 8 c3.823 1.53 18.15 5.342 15 -2 c2.332 -2.241 6.552 0.6198 4.75 3.75 c-30.28 8.493 -54.35 -5.653 -79.75 -8.75 c3.591 -1.269 6.989 -3.181 11 -3 z"/>
<path style="fill:#8eb66b" d="M656 327 c-16.24 2.764 -33.32 -9.72 -51 -8 c18.89 -2.984 33.5 6.661 51 8 z"/>
<path style="fill:#cdebbf" d="M664 323 l3 2 c1.511 4.432 -30.13 -2.863 -14 -3 c3.332 1.81 7.247 2.851 11 1 z"/>
<path style="fill:#4c7806" d="M217 326 c11.88 14.83 11.1 42.16 16.75 62.75 c-4.803 -1.775 -15.19 -1.285 -19.5 0 c17.86 -2.71 25.98 6.07 25.75 24.25 l-4 -3 l-2 -2 c-4.94 -15.55 -13.86 7.652 -4 13 l2 5 l6 14 c-2.509 3.668 -9.678 -5.634 -13 -8 c-2.937 -3.256 -8.646 -9.249 -13 -6 c1.106 9.276 8.314 17.87 15 24 c-17.18 8.634 -36.97 5.749 -51 11 l-5 -2 c-3.937 -11.63 -11.94 -37.64 -24.75 -44.75 l-7.5 33.5 c-8.526 -2.146 -17.19 -5.523 -26.75 -4.75 c6.174 -17.02 21.91 -27.84 28 -45 l8 -16 c2.566 -0.5745 2.229 -3.813 1.75 -5.75 c-16.13 -1.718 -25.42 20.93 -33.75 23.75 c5.372 -14.32 8.024 -29.7 6.75 -45.75 c-0.8335 -0.39 -2.74 -0.6421 -2.75 0.75 c-10.61 -0.1952 -13.29 17.51 -21 23 c-1.519 -6.762 -5.007 -13.72 -9 -19 c-4.298 16.29 -11.8 12.2 -15 -3 c40.26 -28.29 99.31 -29.41 142 -30 z"/>
<path style="fill:#497e33" d="M792 324 l1 2 c-11.32 2.944 -5.682 11.82 3 8 c-1.024 4.035 -19.36 5.761 -13.25 -1.75 c-12.83 5.094 2.482 -9.18 9.25 -8.25 z"/>
<path style="fill:#305604" d="M60 362 c-7.998 -7.131 -5.299 11.49 -7.25 17.75 c-12.72 -15.8 -8.527 9.734 -8 19 l-12.5 -9.5 c3.227 18.03 0.6828 11 -14 9 l5.75 13.75 c-8.592 0.7105 -15.03 -6.009 -24 -4 l0 -81 c22.81 7.185 57.02 5.737 60 35 z"/>
<path style="fill:#7ba776" d="M793 326 c1.293 1.473 3.568 3.49 3 6 l0 2 c-8.682 3.822 -14.32 -5.056 -3 -8 z"/>
<path style="fill:#446e05" d="M260 339 c-5.394 19.37 28.73 4.129 20 22 c0.4057 1.93 2.654 2.088 4 3 c5.646 0.4858 7.477 21.5 -4 24 l-14 -1 c-28.18 12.54 -21.79 -32.82 -30.75 -51.75 c8.571 -2.88 12.01 -3.887 12.75 5.75 c4.376 0.6258 8.237 -0.5091 12 -2 z"/>
<path style="fill:#090d05" d="M260 339 c5.053 -9.988 24.09 -4.94 19.75 10.75 c-6.78 -1.131 -15.77 -3.981 -19.75 -10.75 z"/>
<path style="fill:#efa2da" d="M628 380 c-3.212 1.542 1.727 12.04 -3 10 c-2 8.604 -18.85 16.84 -22 6 l1 -10 c-0.4557 -1.35 0.6498 -2.456 2 -2 l2.75 11.75 c-5.266 -15.24 13.96 -30.44 1.25 -40.75 l-4 6 c-4.945 -3.815 4.233 -8.838 5 -13 c6.557 -6.888 -3.82 -1.959 -4 -4 l6 -7 c8.494 12.72 15.76 22.97 15 43 z"/>
<path style="fill:#92ab79" d="M496 344 l-2 13 c-0.01529 -2.092 0.3556 -4.301 -1 -6 c-6.475 -11.97 -30.17 -6.73 -37 -10 c12.11 -6.594 30.12 1.946 40 3 z"/>
<path style="fill:#6ba544" d="M456 341 c6.832 3.27 30.53 -1.967 37 10 c-10.57 -6.724 -25.97 -7.196 -38.75 -5.25 c-0.4596 -1.508 -1.566 -2.378 -0.25 -3.75 c-0.1547 -1.181 1.337 -1.019 2 -1 z"/>
<path style="fill:#304314" d="M538 350 l-10 18 l-4 11 c-1.772 -9.094 -5.873 -17.23 -9 -26 c5.025 -1.518 18.85 -21.4 18.25 -0.25 l4.75 -2.75 z"/>
<path style="fill:#45720c" d="M454 342 c-1.316 1.372 -0.2096 2.242 0.25 3.75 c12.78 -1.946 28.18 -1.474 38.75 5.25 c1.356 1.699 0.9847 3.908 1 6 l0 8 l0 3 c-5.027 -6.71 -20.39 -19.3 -22 -8 l-6 -3 c-16.98 -13.05 3.332 22.38 -10 18 l0 3 c-1.93 10.2 10.56 23.74 -2 22 l-6 2 l-9 -4 c-5.48 -5.641 -19.61 -0.0936 -10 7 l-15.75 0.75 c-2.997 -18.7 -2.958 -38.98 -3 -58.5 c3.704 9.805 3.054 0.8958 6.75 -3.25 c11.6 13.33 22.17 -7.434 37 -2 z"/>
<path style="fill:#eacad4" d="M515 353 c3.127 8.766 7.228 16.91 9 26 l2 10 c2.171 6.002 -2.586 19 5 19 l-2.75 5.25 c-3.72 19.95 -8.125 -16.83 -8.25 -6.25 l0 5 c0.7297 2.888 -1.3 5.349 -3 7 c0.8157 -6.321 2.739 -15.37 -0.75 -20.75 c0.474 3.971 1.406 11.78 -2 13.5 l-8.25 -38.75 l-12 -8 l0 -8 l2 -13 c4.619 -6.221 12.77 23.81 16 10 c0.02722 -1.33 2.698 -3.107 3 -1 z"/>
<path style="fill:#bc4ca3" d="M611 348 c-4.045 0.5766 -8.583 11.49 -11 4 c4.505 2.984 3.615 -6.459 7 -8 c0.1803 2.041 10.56 -2.888 4 4 z"/>
<path style="fill:#3e6a04" d="M317 443 c-0.3101 -8.914 18.72 -22.94 5 -26 c-4.251 -1.489 -8.757 9.766 -11 4 c1.583 -5.116 -1.685 -9.696 -6 -5 c-16.62 -51.31 66.4 -5.887 60 -23 c0.7258 -1.981 10.99 -2.174 6 -4 c-22.77 -12.88 17.13 -33.07 28.75 -40.75 c3.774 29.4 10.11 78.3 -31.5 56.5 c25.74 7.082 52.98 33.96 16 43 c53.03 34.35 -30.69 56.93 -66 46 c2.632 -15.88 -17.08 -46.77 8.75 -44.75 c22.75 -8.522 49.79 -18.65 73 -24 c-25.7 -12.36 -55.76 13.71 -83 18 z"/>
<path style="fill:#e56dcb" d="M611 348 c-0.7668 4.162 -9.945 9.185 -5 13 c8.358 17.75 -11.53 -4.359 -6 -10 l0 1 c2.417 7.487 6.955 -3.423 11 -4 z"/>
<path style="fill:#eec6dd" d="M538 400 l-6 18 l0 -16 l-1 -21 l-3 -13 l10 -18 c5.536 11.03 3.309 35.11 0 50 z"/>
<path style="fill:#ad378f" d="M600 351 c-5.532 5.641 14.36 27.75 6 10 l4 -6 c12.71 10.31 -6.516 25.51 -1.25 40.75 l-2.75 -11.75 c-0.5916 -4.548 -1.756 -8.929 -4 -13 c0.007507 -5.478 -3.09 -10.85 -6 -15 c-7.434 1.882 -4.721 10.16 -5 16 l0 1 c-3.571 -2.905 -1.984 -6.153 -2 -11 l3 -8 c1.112 -2.103 7.162 -7.948 8 -3 z"/>
<path style="fill:#9c5189" d="M71 352 c-3.541 8.729 3.799 27.92 -8 19 l5 32 c3.072 -4.48 1.727 5.815 4 8 c0.1383 2.387 -0.5567 5.027 1 7 c-3.365 0.1453 -5.386 -3.585 -7.25 2.75 c-1.914 -1.05 -4.406 -5.136 -4.75 -1.75 c-7.052 -7.156 8.718 17.94 1.25 12.75 c-0.4796 -3.559 -2.262 -7.108 -4.25 -9.75 l0 -1 l-4.25 -4.75 c1.448 11.91 -6.899 5.978 -13.5 3 c1.869 5.666 5.1 12.71 10.75 15.75 c3.705 2.424 8.281 4.145 10 9 c-5.631 3.232 -7.198 -8.328 -16 -7 c3.055 -5.584 -4.138 -6.704 -6.75 -7.75 c2.683 3.791 -1.583 16.64 4.75 9.75 c-0.1144 9.314 24.36 22.68 22 8 c3.607 0.8818 6.3 3.524 9 6 l-1 2 c-4.804 1.472 -1.567 5.804 0 8 l-1 1 c-5.381 -0.3614 -10.59 -3.929 -15 -6 c-4.256 -3.618 -11.17 -10.15 -16.75 -7.75 l10.75 7.75 l-9 -2 l-32 -14 l-10 -6 l0 -3 c7.919 -2.133 27.21 6.985 13 -5 l-4 -5 c10.15 7.134 17.46 17.76 29.75 20.75 l-10.75 -9.75 l-10 -15 c-14.17 -18.05 23.21 19.64 9 -1 c-0.7196 -2.012 -0.5126 -5.179 -3 -6 l-5.75 -13.75 c14.68 1.995 17.23 9.03 14 -9 l12.5 9.5 c-0.5273 -9.266 -4.715 -34.8 8 -19 c1.951 -6.256 -0.7485 -24.88 7.25 -17.75 c2.947 20.91 2.239 -17.74 11 -10 z"/>
<path style="fill:#eacad7" d="M71 352 l4 4 c3.196 15.2 10.7 19.29 15 3 c3.993 5.276 7.481 12.24 9 19 l1 6 l1.25 5.75 c11.54 -15.74 12.86 -19.71 15.75 -31.75 l3 -3 c0.01031 -1.392 1.916 -1.14 2.75 -0.75 c1.274 16.05 -1.378 31.43 -6.75 45.75 c-4.05 6.928 -0.1187 9.688 3 2 l19.25 -13.75 c-10.52 6.095 -6.524 1.131 -1.25 -4.25 c1.556 -4.102 14.46 -8.908 11 -2 l-8 16 l-30 35 c-1.228 -3.652 4.863 -20.55 -2.25 -9.25 c-6.744 6.68 2.245 -9.901 -2.5 -6.5 c-0.8608 1.672 -1.175 4.142 -3.25 4.75 c0.268 -2.569 3.605 -11.24 0 -5 l-4.75 -14.75 l-1.25 10.75 c-0.1468 2.292 -2.292 7.442 -2 2 c1.163 -11.18 -7.679 -18.29 -4.25 -1.25 l-2 -3.5 c-2.299 7.798 -4.51 -12.3 -5 4.5 c-6.148 -10.57 -4.881 -11.01 -5.75 2.25 c0.3978 -3.303 -1.591 -6.698 -3 -9 c0.2557 -8.317 0.5028 -17.56 -4.75 -23.75 l-1.25 18.75 l-5 -32 c11.8 8.923 4.459 -10.27 8 -19 z"/>
<path style="fill:#965f83" d="M466 357 c-9.842 -3.244 -1.98 13.07 1 17 c4.139 10.37 -5.815 0.5769 -11 1 c13.33 4.383 -6.979 -31.05 10 -18 z"/>
<path style="fill:#7b6556" d="M120 355 l-3 3 c-9.921 5.907 -11.12 18.04 -17 26 l-1 -6 c7.713 -5.495 10.39 -23.2 21 -23 z"/>
<path style="fill:#eeb7d8" d="M494 368 l11 18 c4.863 8.435 0.651 18.07 3.75 26.75 c-6.604 4.17 -1.612 -10.71 -8.5 -7.5 c1.06 4.674 3.57 13.1 -1.25 15.75 l-4 -13 c1.887 -21.38 -13.49 -27.31 -20.75 -40.75 l-1.25 9.75 c-2.169 -1.863 -3.578 -2.664 -6 -3 c-2.98 -3.926 -10.84 -20.24 -1 -17 l6 3 c1.614 -11.3 16.97 1.29 22 8 z"/>
<path style="fill:#151405" d="M254 416 l-1 10 l-5 -6 c6.583 -6.322 -13.49 -44.7 -9.75 -64.75 l15.75 60.75 z"/>
<path style="fill:#f18ed9" d="M602 371 c-5.592 -3.782 -6.793 -0.8508 -11 1 c0.2794 -5.835 -2.434 -14.12 5 -16 c2.91 4.152 6.008 9.522 6 15 z"/>
<path style="fill:#c47fb3" d="M117 358 c-2.886 12.04 -4.208 16.01 -15.75 31.75 l-1.25 -5.75 c5.877 -7.956 7.079 -20.09 17 -26 z"/>
<path style="fill:#49700c" d="M695 358 c3.17 12.58 -2.767 32.09 -10 43 c0.3207 -12.86 0.4507 -38.53 10 -43 z"/>
<path style="fill:#872468" d="M589 362 c0.01617 4.847 -1.571 8.095 2 11 c8.363 -1.583 11.26 6.567 13 13 l-1 10 c-2.746 -2.207 -6.275 3.913 -4 6 c-2.485 3.691 -0.717 8.416 -1 13 c-0.4885 8.477 -22.66 7.046 -18 -6 c24.87 11.08 7.106 -16.87 7.75 -34.75 c-7.629 0.2105 -0.4053 13.14 -6.5 16.5 l-0.25 -19.75 c1.579 -4.45 1.382 -16.58 8 -9 z"/>
<path style="fill:#581437" d="M581 371 l0.25 19.75 c6.095 -3.364 -1.129 -16.29 6.5 -16.5 c-0.6442 17.88 17.12 45.83 -7.75 34.75 c-7.3 0.1347 -3.623 -12.63 -7 -17 l-2 -10 l-0.25 -16.75 c-4.075 5.278 -3.387 14 -3.75 21.75 c-1.345 -0.3336 -2.737 0.709 -3 2 l-1 0 c-2.608 -5.736 5.425 -19.58 4 -27 c8.111 -8.746 6.931 31.94 12 16 l2 -7 z"/>
<path style="fill:#b25a99" d="M567 362 c1.425 7.421 -6.608 21.26 -4 27 c-16.62 18.88 0.1626 -11.28 0 -19 l4 -8 z"/>
<path style="fill:#9b5685" d="M506 373 l-1 13 l-11 -18 l0 -3 l12 8 z"/>
<path style="fill:#a45279" d="M571 382 c-3.212 -8.626 -2.332 1.619 -4 5 c0.3628 -7.745 -0.3253 -16.47 3.75 -21.75 l0.25 16.75 z"/>
<path style="fill:#de8ac5" d="M495 408 l-5.75 -4.25 c-8.923 -13.28 9.362 20.78 2.5 19.5 c-2.471 1.553 -2.426 3.198 -5.75 -0.25 c-9.237 -18.26 -4.798 -30.25 -12.75 -39.75 c-5.967 6.495 9.732 22.8 -4 9 c4.186 15.35 -4.731 -2.324 -10.25 -6.25 l-3 -8 l0 -3 c5.185 -0.4231 15.14 9.374 11 -1 c2.422 0.3359 3.831 1.137 6 3 l1.25 -9.75 c7.26 13.44 22.64 19.37 20.75 40.75 z"/>
<path style="fill:#af6ca7" d="M75 368 c1.85 7.96 7.442 15.31 2 24 c-3.818 -6.424 -3.856 -16.38 -2 -24 z"/>
<path style="fill:#af6598" d="M528 368 l3 13 l-5 8 l-2 -10 l4 -11 z"/>
<path style="fill:#d45db2" d="M602 371 c2.244 4.071 3.408 8.452 4 13 c-1.35 -0.4557 -2.456 0.6497 -2 2 c-1.744 -6.433 -4.637 -14.58 -13 -13 l0 -1 c4.207 -1.851 5.408 -4.782 11 -1 z"/>
<path style="fill:#f4c1e2" d="M563 389 l1 0 c2.017 -0.4525 1.931 0.8362 1 2 c0.3336 1.345 -0.7089 2.737 -2 3 c-4.882 2.566 -4.302 10.68 -10 11 l-1 1 c-9.559 3.298 -14.47 16.37 -20.75 23.75 c1.827 -16.14 19.19 -26.21 17.75 -43.75 l14 -16 c0.1626 7.723 -16.62 37.88 0 19 z"/>
<path style="fill:#d484a0" d="M517 419 l-4 -2 l0 5 c-3.62 -11.03 -11.48 -5.736 -12 2 l-2 -3 c4.82 -2.645 2.31 -11.08 1.25 -15.75 c6.888 -3.212 1.896 11.67 8.5 7.5 c-3.099 -8.683 1.113 -18.31 -3.75 -26.75 l1 -13 l8.25 38.75 c3.406 -1.722 2.474 -9.529 2 -13.5 c3.489 5.376 1.566 14.43 0.75 20.75 z"/>
<path style="fill:#d798b5" d="M635 380 l-5 18 c-2.788 3.014 -4.874 -4.849 -5 -8 c4.727 2.044 -0.212 -8.458 3 -10 c-0.9349 13.68 7.141 -11.59 7.25 -3.75 l-0.25 3.75 z"/>
<path style="fill:#9a7879" d="M148 382 c3.459 -6.908 -9.444 -2.102 -11 2 c-9.362 2.806 -10.23 12.74 -18 18 c-3.119 7.688 -7.05 4.928 -3 -2 c8.327 -2.818 17.62 -25.47 33.75 -23.75 c0.4785 1.937 0.8164 5.176 -1.75 5.75 z"/>
<path style="fill:#38560c" d="M760 393 l-1 -7 l4.25 -5.75 c7.152 -12.88 0.2452 25.85 -3.25 12.75 z"/>
<path style="fill:#866370" d="M459 386 c1.998 6.559 6.793 28.64 -1 21 c4.603 -0.4112 -2.366 -6.589 -4 -7 c12.56 1.735 0.06995 -11.8 2 -22 l3 8 z"/>
<path style="fill:#ea80ce" d="M571 382 l2 10 c-4.513 11.48 -3.624 -1.934 -8 -1 c0.9312 -1.164 1.017 -2.452 -1 -2 c0.2628 -1.291 1.655 -2.334 3 -2 c1.668 -3.381 0.7883 -13.63 4 -5 z"/>
<path style="fill:#58223a" d="M635 380 l-1 11 c-6.54 18.68 -7.009 51.61 -31 49 l-20 -6 l-15 -3 c6.805 -0.4626 -2.805 -8.53 -1 -13 c2.392 13.34 12.14 12.67 23 12 c5.042 1.768 15.79 -0.1904 16 7 l8 -12 c12.48 -5.025 5.637 -12.17 9 -26 l1.75 10.25 c-1.558 16.42 3.747 -5.405 5.25 -11.25 l5 -18 z"/>
<path style="fill:#cf8ab2" d="M532 402 l-1 6 c-7.586 -0.003387 -2.829 -13 -5 -19 l5 -8 l1 21 z"/>
<path style="fill:#b85f9e" d="M486 423 l-2 13 c-2.88 6.053 10.93 14.14 11 18 l-2 0 c-13.57 -5.003 -32.31 -10.42 -39 -19 c2.045 -3.174 12.84 -2.183 6 -6 c-2.966 -13.23 -23.58 -18.77 -31.75 -30.75 l10.75 -0.25 l9 4 l10 5 c7.793 7.636 2.998 -14.44 1 -21 c5.519 3.926 14.44 21.6 10.25 6.25 c13.73 13.8 -1.967 -2.505 4 -9 c7.952 9.498 3.513 21.49 12.75 39.75 z"/>
<path style="fill:#c87cb3" d="M74 408 l-2 3 c-2.273 -2.185 -0.9276 -12.48 -4 -8 l1.25 -18.75 c5.253 6.187 5.006 15.43 4.75 23.75 z"/>
<path style="fill:#cf95c0" d="M137 384 c-5.274 5.381 -9.269 10.35 1.25 4.25 l-19.25 13.75 c7.772 -5.257 8.638 -15.19 18 -18 z"/>
<path style="fill:#cd7dae" d="M549 386 c1.441 17.54 -15.92 27.61 -17.75 43.75 c6.283 -7.378 11.19 -20.45 20.75 -23.75 c-2.167 8.69 -25.56 30.61 -6.75 17.25 l-1.25 3.75 l-1 1 l-12 12 l-6 3 c4.295 -4.048 6.855 -14.42 0 -17 c3.501 -0.7984 7.088 -3.521 7 -8 l6 -18 l11 -14 z"/>
<path style="fill:#597f14" d="M760 393 c-1.29 17.93 -13.83 1.018 -1 -7 l1 7 z"/>
<path style="fill:#79a44a" d="M201 389 l8 0 c1.627 0.004089 4.502 -0.4805 4.75 1.75 c-8.513 -4.555 -21.65 11.63 -18.5 1.5 l5.75 -3.25 z"/>
<path style="fill:#ab4689" d="M625 390 c0.126 3.151 2.212 11.01 5 8 c-1.503 5.845 -6.808 27.67 -5.25 11.25 l-1.75 -10.25 c-3.363 13.83 3.475 20.97 -9 26 c-12.88 16.59 -9.281 -18.03 -20 -3 c6.113 0.4673 5.13 8.646 -4 8 c-10.86 0.6722 -20.61 1.344 -23 -12 c-4.243 -2.303 -1.67 -11.26 -7 -11 c-1.476 -3.423 1.563 -7.014 3 -13 c1.291 -0.2628 2.334 -1.655 2 -3 c4.376 -0.9341 3.487 12.48 8 1 c3.377 4.37 -0.3004 17.13 7 17 c-4.659 13.05 17.51 14.48 18 6 l11.75 0.75 c2.283 -8.128 -6.512 -7.319 -9.5 -7 l-1.25 -6.75 c-2.275 -2.087 1.254 -8.207 4 -6 c3.146 10.84 20 2.604 22 -6 z"/>
<path style="fill:#8eab5a" d="M168 391 l10 1 c17.96 9.006 -30.33 7.722 -10 -1 z"/>
<path style="fill:#3f6419" d="M253 393 l16.75 4.25 l-6.75 6.75 c-0.8542 -1.708 -2.161 -6.512 -5 -3 c-0.01624 1.442 -0.764 3.393 -2 4 c-3.395 8.439 -9.358 -14.71 -3 -12 z"/>
<path style="fill:#874a6e" d="M301 410 c-2.974 -4.598 -3.803 4.879 -7 6 c-1.291 -0.2628 -2.334 -1.655 -2 -3 l-2 -15 c-3.195 2.383 -2.988 -0.7334 -2 -3 c5.067 -4.571 5.431 8.111 5.25 11.75 c4.325 -6.144 7.162 -3.805 7.75 3.25 z"/>
<path style="fill:#cf6db8" d="M563 394 c-1.438 5.986 -4.476 9.577 -3 13 l-5 8 c-5.185 -0.5799 2.716 -9.35 -2 -10 c5.698 -0.322 5.118 -8.434 10 -11 z"/>
<path style="fill:#aa5c8d" d="M288 395 c-0.9877 2.267 -1.195 5.383 2 3 l-3 19 c-2.713 10.65 -6.186 14.79 -6 24 c-3.787 0.3855 -5.363 8.558 -7 -1 c-0.2337 -3.325 -0.4153 -10.97 2.75 -5.25 l0.25 -8.75 l4 -19 l7 -12 z"/>
<path style="fill:#744162" d="M439 398 l-10.75 0.25 c8.169 11.98 28.78 17.52 31.75 30.75 l-25 -19 l-2 -2 c-0.6726 -1.456 -2.147 -3.326 -4 -3 c-9.613 -7.094 4.52 -12.64 10 -7 z"/>
<path style="fill:#ad698c" d="M140 398 c-6.092 17.16 -21.83 27.98 -28 45 c-2.694 -0.3704 -3.756 2.979 -4 5 c-1.291 0.2628 -2.334 1.655 -2 3 c-17.76 11.15 -0.1404 -7.792 -4 -17 c-0.01862 -0.6634 -0.1814 -2.155 1 -2 c3.602 -0.119 5.209 7.417 7 1 l30 -35 z"/>
<path style="fill:#f2badc" d="M292 413 c-2.239 2.339 -5.69 13.94 -5 4 l3 -19 l2 15 z"/>
<path style="fill:#d78b87" d="M495 408 l4 13 c-5.892 -7.402 -4.324 2.934 -6 7 c-1.915 1.545 -1.239 5.911 0 8 c-2.179 3.25 -3.203 5.712 -9 0 l2 -13 c3.324 3.448 3.279 1.803 5.75 0.25 c6.862 1.282 -11.42 -32.78 -2.5 -19.5 l5.75 4.25 z"/>
<path style="fill:#8a4d70" d="M263 404 c1.499 0.8524 2.23 3.169 2 5 l3 7 l6 24 c-4.222 12.13 9.799 12.68 6.25 25.75 l3.75 1.25 c-0.9312 1.164 -1.017 2.452 1 2 l-5 5 c-1.794 1.651 -5.655 2.378 -5 6 l-5 1 c-8.363 -2.826 -19.44 -9.92 -27 -2 c-3.935 -0.2873 -8.172 1.121 -11 3 l-18 -7 c10.02 -6.001 27.81 -0.4858 37 -6 c2.518 0.6287 2.041 -1.824 1 -3 c-0.6365 -6.868 1.969 -8.882 6 -4 l9.75 11.75 c3.181 -4.151 -5.588 -10.38 -0.75 -11.75 l2.25 6.75 c4.477 12.7 9.534 -25.24 0.75 -13.75 c3.865 -3.6 -0.6653 -14.58 -4 -15 c1.884 -13.09 -8.386 -24.94 -8 -39 c2.839 -3.512 4.146 1.292 5 3 z"/>
<path style="fill:#554f2d" d="M454 400 c1.634 0.4112 8.603 6.589 4 7 l-10 -5 l6 -2 z"/>
<path style="fill:#dda6a1" d="M94 415 c-1.254 -4.977 -3.96 -0.6954 -4.25 2.75 c-1.63 -6.714 -7.032 0.6559 -8.75 0.25 l-5 5 l1 -6 c0.8689 -13.26 -0.398 -12.82 5.75 -2.25 c0.4897 -16.8 2.701 3.298 5 -4.5 l2 3.5 c-3.429 -17.04 5.413 -9.927 4.25 1.25 z"/>
<path style="fill:#b3649c" d="M266 440 c-3.289 -7.939 -5.988 2.096 -8 5 l0 -3 c-0.1581 -10.98 4.035 -24.52 -2 -34 l0 -3 c1.236 -0.6073 1.984 -2.558 2 -4 c-0.3861 14.06 9.884 25.91 8 39 z"/>
<path style="fill:#e0a9b1" d="M102 417 c-7.167 13.59 -1.749 -2.072 -6 -4 l1.25 -10.75 l4.75 14.75 z"/>
<path style="fill:#4d5d2b" d="M234 408 c-8.601 -6.186 -5.718 8.734 -4 13 c-9.858 -5.348 -0.94 -28.55 4 -13 z"/>
<path style="fill:#e6c387" d="M532 402 l0 16 c0.08765 4.479 -3.499 7.202 -7 8 l-1 0 l-3 0 l-4 -7 c1.7 -1.651 3.73 -4.112 3 -7 l0 -5 c0.1246 -10.58 4.53 26.2 8.25 6.25 l2.75 -5.25 l1 -6 z"/>
<path style="fill:#7c0f33" d="M599 402 l1.25 6.75 c2.988 -0.3185 11.78 -1.128 9.5 7 l-11.75 -0.75 c0.283 -4.584 -1.485 -9.309 1 -13 z"/>
<path style="fill:#a24289" d="M553 405 c4.716 0.6498 -3.185 9.42 2 10 l-11 12 l1.25 -3.75 c-18.81 13.36 4.583 -8.56 6.75 -17.25 l1 -1 z"/>
<path style="fill:#bdb2b4" d="M234 408 l2 2 c-5.207 3.291 12.17 15.58 3 16 l-5 -2 c-1.836 -2.925 -2.255 -0.819 -2 2 l-2 -5 c-1.718 -4.266 -4.601 -19.19 4 -13 z"/>
<path style="fill:#446012" d="M281 407 l-4 19 c-3.678 12.5 -4.853 -6.289 -9 -10 l-3 -7 c4.384 5.396 11.99 1.628 16 -2 z"/>
<path style="fill:#15130b" d="M567 418 c-1.805 4.47 7.805 12.54 1 13 l-1 0 c-1.478 -1.585 -4.542 -2.142 -7 -2 l-17 -1 l1 -1 l11 -12 l5 -8 c5.33 -0.2581 2.757 8.697 7 11 z"/>
<path style="fill:#e0bfd0" d="M24 412 c2.487 0.8212 2.28 3.988 3 6 c14.21 20.64 -23.17 -17.05 -9 1 l-7.75 -4.75 c4.222 6.953 11.12 14.09 17.75 19.75 l10.75 9.75 c-12.29 -2.986 -19.6 -13.62 -29.75 -20.75 l-9 -10 l0 -5 c8.967 -2.009 15.41 4.71 24 4 z"/>
<path style="fill:#bb7366" d="M74 408 c1.409 2.302 3.398 5.697 3 9 l-1 6 l-3 -5 c-1.557 -1.973 -0.8617 -4.613 -1 -7 l2 -3 z"/>
<path style="fill:#f9bde8" d="M258 442 l-2 -33 l0 -1 c6.035 9.484 1.842 23.02 2 34 z"/>
<path style="fill:#edcfda" d="M301 410 c-0.7055 3.893 0.01105 13.04 4 6 c4.315 -4.696 7.583 -0.1155 6 5 c-4.067 12.15 8.054 1.536 11 -4 c13.72 3.059 -5.31 17.09 -5 26 c-1.291 0.2628 -2.334 1.655 -2 3 l-17 7 c-0.547 -2.08 -4.739 0.1303 -4 2 c-3.902 1.388 0.8375 -11.88 -5 -10 c-4.092 -10.38 2.217 -19.15 5 -29 c3.197 -1.121 4.026 -10.6 7 -6 z"/>
<path style="fill:#41650a" d="M433 408 l2 2 c-3.914 7.059 -11.88 17.64 -21.75 16.75 c-7.826 -16.36 7.652 -17.44 19.75 -18.75 z"/>
<path style="fill:#d095be" d="M256 409 l2 33 l0 3 l0 7 c-3.428 -0.5502 -4.289 -5.776 -4 -9 l-1 -17 l1 -10 l2 -7 z"/>
<path style="fill:#dccdcc" d="M236 410 l4 3 l8 7 l5 6 l1 17 l-15 -17 c9.173 -0.4182 -8.207 -12.71 -3 -16 z"/>
<path style="fill:#d59053" d="M94 415 c-0.2918 5.442 1.853 0.2919 2 -2 c4.251 1.928 -1.167 17.59 6 4 c3.605 -6.244 0.268 2.431 0 5 c-1.517 4.501 4.408 2.294 1 10 c-1.181 -0.1547 -1.019 1.337 -1 2 l-3 1 l-2 0 c1.063 -18.38 -13.97 -12.35 -4 2 l-9 11 c-0.05073 -2.732 -0.5046 -6.171 -2 -8 c-0.01862 -0.6634 -0.1814 -2.155 1 -2 c1.08 1.658 2.754 2.199 4.75 2.75 c3.674 -3.644 -5.75 -6.012 -3.5 -10.5 c6.785 7.008 2.138 -3.792 0.75 -8.25 l-3 10 l-1 -14 c1.718 0.4059 7.12 -6.964 8.75 -0.25 c0.2897 -3.445 2.996 -7.727 4.25 -2.75 z"/>
<path style="fill:#485f1e" d="M9 423 l4 5 c-4.312 -1.585 -8.759 1.407 -13 3 l0 -18 l9 10 z"/>
<path style="fill:#d787b7" d="M292 413 c-0.3336 1.345 0.709 2.737 2 3 c-2.783 9.853 -9.092 18.62 -5 29 c-5.8 3.218 -2.546 -12.68 -8 -4 c-0.1862 -9.214 3.287 -13.35 6 -24 c-0.6902 9.936 2.761 -1.661 5 -4 z"/>
<path style="fill:#cd89c2" d="M18 419 l10 15 c-6.633 -5.66 -13.53 -12.8 -17.75 -19.75 l7.75 4.75 z"/>
<path style="fill:#101607" d="M171 459 l-4 -1 l-9 -3 c-14.76 -6.061 -31.42 -14.35 -45 -3 c-0.8621 -2.947 -5.289 0.5044 -5 -4 c0.2436 -2.021 1.306 -5.37 4 -5 c9.556 -0.7727 18.22 2.604 26.75 4.75 l7.5 -33.5 c12.81 7.109 20.81 33.12 24.75 44.75 z"/>
<path style="fill:#b24f5f" d="M517 419 l4 7 c-4.872 -1.183 -8.686 2.658 -11 6 c-3.024 -6.458 -4.65 -8.173 -4 1 c-7.173 3.442 1.658 1.084 0 11 c-5.453 -3.376 -7.713 2.33 -2.25 3.75 c-7.632 -0.7643 -6.831 2.321 -1.75 5.25 l-7 1 c-0.06644 -3.856 -13.88 -11.95 -11 -18 c5.797 5.712 6.821 3.25 9 0 c1.204 7.704 12.91 5.564 5 -1 l3 -11 c0.5152 -7.736 8.38 -13.03 12 -2 l0 -5 l4 2 z"/>
<path style="fill:#813957" d="M58 422 l-1.25 -0.75 c-0.9487 -2.135 -2.727 -0.1057 -1 1 c2.634 9.608 -16.58 -1.589 -4.75 12.75 c-5.65 -3.039 -8.881 -10.08 -10.75 -15.75 c6.601 2.978 14.95 8.906 13.5 -3 l4.25 4.75 l0 1 z"/>
<path style="fill:#7b3b21" d="M61 419 c3.783 12.1 8.513 -2.048 11 10 l-4 5 c-3.029 4.756 -0.07796 12.55 5 14 l1 2 c3.869 3.413 6.534 -4.509 9 2 c-0.1898 0.9471 0.592 2.944 -1 3 c-1.143 -3.671 -5.61 0.9787 -8 -2 c-2.7 -2.476 -5.393 -5.118 -9 -6 c0.9787 -3.01 -1.727 -3.403 -4 -3 c-1.719 -4.855 -6.295 -6.576 -10 -9 c-11.83 -14.34 7.384 -3.142 4.75 -12.75 c-1.727 -1.106 0.05126 -3.135 1 -1 l1.25 0.75 c1.988 2.642 3.77 6.191 4.25 9.75 c7.468 5.195 -8.302 -19.91 -1.25 -12.75 z"/>
<path style="fill:#aa5a42" d="M73 418 l3 5 l5 -5 l1 14 l1 6 c-1.181 -0.1547 -1.019 1.337 -1 2 c0.3682 4.164 -2.099 4.18 -3 1 c0.6322 -1.061 1.199 -1.973 -0.25 -2.75 c-6.022 12.38 0.9169 -6.733 -6.75 -9.25 c-2.487 -12.05 -7.217 2.101 -11 -10 c0.3436 -3.386 2.836 0.7 4.75 1.75 c1.864 -6.335 3.885 -2.605 7.25 -2.75 z"/>
<path style="fill:#e2a494" d="M110 433 c-1.791 6.417 -3.398 -1.119 -7 -1 c3.408 -7.706 -2.517 -5.499 -1 -10 c2.075 -0.6085 2.389 -3.078 3.25 -4.75 c4.745 -3.401 -4.244 13.18 2.5 6.5 c7.113 -11.3 1.022 5.598 2.25 9.25 z"/>
<path style="fill:#6b5841" d="M277 426 l-0.25 8.75 c-3.165 -5.72 -2.984 1.925 -2.75 5.25 l-6 -24 c4.147 3.711 5.322 22.5 9 10 z"/>
<path style="fill:#90716d" d="M322 417 c-2.946 5.536 -15.07 16.15 -11 4 c2.243 5.766 6.749 -5.489 11 -4 z"/>
<path style="fill:#812a62" d="M614 425 l-8 12 c-0.2125 -7.19 -10.96 -5.232 -16 -7 c9.13 0.6463 10.11 -7.533 4 -8 c10.72 -15.03 7.118 19.59 20 3 z"/>
<path style="fill:#dd932f" d="M499 421 l2 3 l-3 11 c-4.882 2.608 -3.18 -4.411 -5 -7 c1.676 -4.066 0.108 -14.4 6 -7 z"/>
<path style="fill:#aa5e13" d="M83 438 l-1 -6 l3 -10 c1.388 4.458 6.035 15.26 -0.75 8.25 c-2.25 4.488 7.174 6.856 3.5 10.5 c-1.996 -0.5512 -3.67 -1.092 -4.75 -2.75 z"/>
<path style="fill:#ac6718" d="M97 435 c-0.6073 1.236 -2.558 1.984 -4 2 c-9.968 -14.35 5.063 -20.38 4 -2 z"/>
<path style="fill:#e9badb" d="M234 424 c1.54 3.965 10.24 22.26 4 16 l-6 -14 c-0.255 -2.819 0.1645 -4.925 2 -2 z"/>
<path style="fill:#a65794" d="M239 426 l15 17 c-0.2887 3.224 0.5717 8.45 4 9 c-1.452 0.7903 -3.472 3.798 -1 5 l1 5 c-4.031 -4.882 -6.636 -2.868 -6 4 c-2.956 -11.66 0.9611 -11.93 -7.75 -8.25 c-7.526 -9.355 -7.594 -17.45 -20 -22.5 l21.75 28.75 c-7.205 -2.797 -12.86 -9.096 -19 -14 c-6.686 -6.128 -13.89 -14.72 -15 -24 c3.777 1.32 3.137 10.86 7.75 11.75 c-4.298 -7.936 -3.554 -9.999 5.25 -5.75 c3.322 2.366 10.49 11.67 13 8 c6.241 6.264 -2.46 -12.03 -4 -16 l5 2 z"/>
<path style="fill:#6d4155" d="M225 432 c-8.804 -4.249 -9.548 -2.186 -5.25 5.75 c-4.613 -0.8915 -3.973 -10.43 -7.75 -11.75 c4.354 -3.249 10.06 2.744 13 6 z"/>
<path style="fill:#eb9464" d="M510 432 c-2.519 2.915 -2.111 7.545 -2 12 l-2 0 c1.658 -9.916 -7.173 -7.558 0 -11 c-0.6498 -9.173 0.9755 -7.458 4 -1 z"/>
<path style="fill:#ee9ad0" d="M521 426 l3 0 l0 1 c-5.707 -0.3794 -12.97 4.845 -10 11 l-2 4 l-4 2 c-0.1114 -4.455 -0.5188 -9.085 2 -12 c2.314 -3.342 6.128 -7.183 11 -6 z"/>
<path style="fill:#6e2954" d="M525 426 c6.855 2.578 4.295 12.95 0 17 l-2 2 c-9.981 -0.8892 -0.6429 -11.43 1 -16 l0 -2 l0 -1 l1 0 z"/>
<path style="fill:#1b0c14" d="M13 428 c14.21 11.99 -5.081 2.867 -13 5 l0 -2 c4.241 -1.593 8.688 -4.585 13 -3 z"/>
<path style="fill:#d074c3" d="M524 427 l0 2 l-10 9 c-2.972 -6.155 4.293 -11.38 10 -11 z"/>
<path style="fill:#aa5b18" d="M493 428 c1.82 2.589 0.1185 9.608 5 7 c7.907 6.564 -3.796 8.704 -5 1 c-1.239 -2.089 -1.915 -6.455 0 -8 z"/>
<path style="fill:#63362f" d="M543 428 l17 1 l-28 12 l-1 -1 l12 -12 z"/>
<path style="fill:#cf6db9" d="M45 437 l-2 2 c-6.333 6.889 -2.067 -5.959 -4.75 -9.75 c2.612 1.046 9.805 2.166 6.75 7.75 z"/>
<path style="fill:#df9253" d="M79 441 c-0.9463 3.133 -1.985 8.099 -5 9 l-1 -2 c0.2873 -5.958 2.603 -22.34 -4.25 -11.25 l-0.75 -2.75 l4 -5 c7.667 2.517 0.7278 21.63 6.75 9.25 c1.449 0.7769 0.8822 1.689 0.25 2.75 z"/>
<path style="fill:#9d4d83" d="M524 429 c-1.643 4.569 -10.98 15.11 -1 16 c-1.31 4.166 -5.027 2.371 -8 2 c-1.716 -1.237 -4.087 -1.666 -3 -5 l2 -4 l10 -9 z"/>
<path style="fill:#e497c0" d="M560 429 c2.416 2.351 -0.6893 3.708 -2 5 c-11.53 3.052 -20.82 7.887 -31 13 c-5.425 -1.606 4.539 -2.913 5 -6 l28 -12 z"/>
<path style="fill:#653149" d="M567 431 c-6.427 5.405 -26.55 14.94 -23.25 19.75 c-8.505 5.018 4.467 1.644 8.25 2.25 c-4.733 1.862 -11.21 2.117 -17 2 c-0.05023 -5.573 -4.64 -5.918 -9 -4 l5 -4 c9.238 -3.527 19.93 -5.442 27 -13 c1.311 -1.292 4.416 -2.649 2 -5 c2.458 -0.1415 5.522 0.4151 7 2 z"/>
<path style="fill:#8e4b71" d="M567 431 l1 0 l15 3 c-9.742 -0.4983 -16.18 8.804 -26 9 c-8.354 4.352 19.55 0.142 15 3 c-2.839 -0.8223 -2.092 2.899 0 3 l2 0 c-6.714 1.461 -14.27 4.38 -22 4 c-3.783 -0.6056 -16.76 2.768 -8.25 -2.25 c-3.3 -4.81 16.82 -14.35 23.25 -19.75 z"/>
<path style="fill:#b86e17" d="M73 448 c-5.078 -1.448 -8.029 -9.244 -5 -14 l0.75 2.75 c6.853 -11.09 4.537 5.292 4.25 11.25 z"/>
<path style="fill:#6f3954" d="M102 434 c3.86 9.208 -13.76 28.15 4 17 l-2 4 c-5.439 4.774 -13.54 13.6 -20 12 l-11 -12 l1 -2 c2.39 2.979 6.857 -1.671 8 2 c-7.384 2.242 10.42 2.249 6.75 7.75 l10.25 -27.75 l3 -1 z"/>
<path style="fill:#b666a5" d="M558 434 c-7.074 7.558 -17.76 9.473 -27 13 l-4 0 c10.18 -5.113 19.47 -9.948 31 -13 z"/>
<path style="fill:#ead5ce" d="M583 434 l20 6 l-11 5 l-35 -2 c9.822 -0.1957 16.26 -9.498 26 -9 z"/>
<path style="fill:#365f05" d="M763 434 c4.588 -0.3724 8.81 0.2025 12.75 2.25 c37.39 3.886 -43.8 23.79 -12.75 -2.25 z"/>
<path style="fill:#b65f99" d="M99 435 l-10.25 27.75 c3.67 -5.501 -14.13 -5.508 -6.75 -7.75 c1.592 -0.05585 0.8102 -2.053 1 -3 l1 -4 l9 -11 c1.442 -0.01627 3.393 -0.764 4 -2 l2 0 z"/>
<path style="fill:#cf7ebf" d="M252 466 c1.041 1.176 1.518 3.629 -1 3 l-5 -5 l-21.75 -28.75 c12.41 5.053 12.47 13.15 20 22.5 c8.711 -3.675 4.794 -3.408 7.75 8.25 z"/>
<path style="fill:#924a53" d="M266 440 l-1.75 4.75 c-10.52 -7.366 4.602 30.35 -1.25 21.25 l-2 -6 c-0.6556 -1.773 -3.626 -9.857 -4 -3 c-2.472 -1.202 -0.4522 -4.21 1 -5 l0 -7 c2.012 -2.904 4.711 -12.94 8 -5 z"/>
<path style="fill:#3c5f09" d="M413 435 c11.86 4.95 22.5 -1.221 16.75 14.75 c-10.45 0.3618 -20.97 -1.05 -16.75 -14.75 z"/>
<path style="fill:#6a414f" d="M454 435 c6.693 8.576 25.43 14 39 19 c-12.64 0.1688 -22.56 -6.344 -34 -11 c-2.349 -1.97 -10.63 -5.826 -5 -8 z"/>
<path style="fill:#100e09" d="M10 442 l3 3 l-13 5 l0 -14 l10 6 z"/>
<path style="fill:#6e265e" d="M61 444 c2.273 -0.4033 4.979 -0.01031 4 3 c2.36 14.68 -22.11 1.314 -22 -8 l2 -2 c8.802 -1.328 10.37 10.23 16 7 z"/>
<path style="fill:#c1775a" d="M289 445 l0 6 c-0.5043 4.527 -5.507 -2.452 -5 2 c-1.837 -5.371 -3.794 -3.499 -3 -12 c5.454 -8.678 2.2 7.218 8 4 z"/>
<path style="fill:#b46d19" d="M84 448 l-1 4 c-2.466 -6.509 -5.131 1.413 -9 -2 c3.015 -0.9008 4.054 -5.867 5 -9 c0.9013 3.18 3.368 3.164 3 -1 c1.495 1.829 1.949 5.268 2 8 z"/>
<path style="fill:#783526" d="M266 440 c3.335 0.4218 7.865 11.4 4 15 c-2.445 1.307 -3.746 3.842 -3 7 c-4.838 1.37 3.931 7.599 0.75 11.75 l-9.75 -11.75 l-1 -5 c0.3738 -6.857 3.344 1.227 4 3 l2 6 c5.852 9.097 -9.27 -28.62 1.25 -21.25 l1.75 -4.75 z"/>
<path style="fill:#8e4926" d="M281 441 c-0.7939 8.501 1.163 6.629 3 12 c-5.295 3.037 -1.845 7.564 2 10 l-2 4 l-3.75 -1.25 c3.549 -13.07 -10.47 -13.62 -6.25 -25.75 c1.637 9.558 3.213 1.386 7 1 z"/>
<path style="fill:#b47f69" d="M531 440 l1 1 c-0.4611 3.087 -10.42 4.394 -5 6 l4 0 l-5 4 l-6 1 l-15 1 l10 -6 c2.973 0.3711 6.69 2.166 8 -2 l2 -2 l6 -3 z"/>
<path style="fill:#4e2d32" d="M603 440 l10 4 c-4.51 0.4131 -3.01 3.796 -5 7 l-29 5 c-2.44 -6.313 15.12 -4.719 8 -9 l5 -2 l11 -5 z"/>
<path style="fill:#49662e" d="M731 441 c2.188 -0.3321 5.037 -0.0004578 5.25 2.75 c16.46 8.015 -20.62 4.2 -5.25 -2.75 z"/>
<path style="fill:#5e3d4a" d="M42 456 l-1 0 c-10.03 -1.776 -19.14 -5.976 -28 -11 l-3 -3 l32 14 z"/>
<path style="fill:#c36e9c" d="M512 442 c-1.087 3.334 1.284 3.763 3 5 l-10 6 l-3 0 c-5.081 -2.929 -5.882 -6.014 1.75 -5.25 c-5.463 -1.42 -3.203 -7.126 2.25 -3.75 l2 0 l4 -2 z"/>
<path style="fill:#4b510e" d="M493 454 l2 0 l7 -1 l3 0 l15 -1 c-9.473 1.479 5.198 2.882 -6 6 c-0.7961 -5.546 -13.45 -1.524 -19 0 l-1 -1 c-5.604 -4.676 -6.323 4.321 -11 5 c-9.871 -6.329 -25.05 -8.673 -24 -19 c11.44 4.656 21.36 11.17 34 11 z"/>
<path style="fill:#b07698" d="M557 443 l35 2 l-5 2 l-13 2 l-2 0 c-2.092 -0.1008 -2.839 -3.822 0 -3 c4.554 -2.858 -23.35 1.352 -15 -3 z"/>
<path style="fill:#d49784" d="M294 455 l0 2 l-9 12 c-2.017 0.4525 -1.931 -0.8362 -1 -2 l2 -4 c2.371 -2.68 6.51 -8.02 3 -12 l0 -6 c5.838 -1.885 1.098 11.39 5 10 z"/>
<path style="fill:#3b6406" d="M13 445 c8.855 5.024 17.97 9.224 28 11 c5.822 2.661 -1.046 5.906 -3 9 l-14 15 l0 1 c4.912 5.655 22.25 -1.433 31.75 -0.75 c-6.878 17.6 -6.495 35.07 -30.5 28 c12.29 27.02 6.433 53.31 -25.25 65.75 l0 -56 c7.656 -0.9092 35.04 -11.91 14 -9 c-4.123 0.6898 -2.852 -2.199 -0.25 -3.25 c15.4 -11.6 -8.846 -1.882 -13.75 4.25 l0 -60 l13 -5 z"/>
<path style="fill:#407106" d="M800 445 l0 49 c-3.265 -2.054 -2.173 -10.06 -7.75 -8.75 l7.75 35.75 l0 4 c-17.59 -18.14 -50.97 -2.203 -64 19 c-27.85 -9.316 -60.19 -25.86 -69 -43 c2.357 -3.82 4.865 4.984 7.75 0.75 l4.5 -21.5 c45.31 -9.707 78.45 -27.17 120.8 -35.25 z"/>
<path style="fill:#443041" d="M158 455 c-28.99 -7.837 -26.19 11.41 -42 14 c2.5 3.202 9.744 4.053 13 2 l6 0 c-8.093 4.559 -21.92 0.9904 -30 1 l-4.75 -2.75 c9.56 -2.366 13.83 -14.35 3.75 -14.25 l2 -4 c-0.3336 -1.345 0.7089 -2.737 2 -3 c-0.2895 4.504 4.138 1.053 5 4 c13.58 -11.35 30.24 -3.061 45 3 z"/>
<path style="fill:#be699e" d="M315 446 l-3 4 c-5.91 -1.764 -9 8.768 -13 8 c0.14 -1.809 0.08469 -3.552 -1 -5 l17 -7 z"/>
<path style="fill:#6d3545" d="M57 458 c-1.533 1.017 -5.036 1.997 -6 0 l-10.75 -7.75 c5.577 -2.397 12.49 4.132 16.75 7.75 z"/>
<path style="fill:#dac0bf" d="M608 451 c-6.507 14.26 -25.64 28.08 -29 5 l29 -5 z"/>
<path style="fill:#5c2937" d="M312 450 c-4.641 8.415 -11.47 14.54 -17.75 21.75 l4.75 -13.75 c4 0.7675 7.09 -9.764 13 -8 z"/>
<path style="fill:#454712" d="M535 455 c-3.113 1.649 -8.484 -1.493 -7 5 l-0.25 5.75 c-15.49 -2.23 8.938 -18.01 -7.75 -13.75 l6 -1 c4.36 -1.918 8.95 -1.573 9 4 z"/>
<path style="fill:#dda62c" d="M289 451 c3.51 3.98 -0.6291 9.32 -3 12 c-3.845 -2.436 -7.295 -6.963 -2 -10 c-0.5068 -4.452 4.496 2.527 5 -2 z"/>
<path style="fill:#765084" d="M158 455 l9 3 c-4.407 -1.217 -18.11 2.899 -7 3 l2 7 c-12.18 1.018 -24.16 2.464 -36.75 2.25 l3.75 0.75 c-3.256 2.053 -10.5 1.202 -13 -2 c15.81 -2.589 13.01 -21.84 42 -14 z"/>
<path style="fill:#e299c7" d="M267 462 c-0.7455 -3.158 0.5551 -5.693 3 -7 c8.784 -11.49 3.727 26.45 -0.75 13.75 l-2.25 -6.75 z"/>
<path style="fill:#49232b" d="M73 455 l11 12 c-4.597 -0.8218 2.597 4.822 -2 4 l-9 -8 c-1.567 -2.196 -4.804 -6.528 0 -8 z"/>
<path style="fill:#8f5e4f" d="M514 458 c0.1547 1.181 -1.337 1.019 -2 1 c-5.924 -10.1 -10.22 10.83 -17 0 l0 -1 c5.554 -1.524 18.2 -5.546 19 0 z"/>
<path style="fill:#412517" d="M42 456 l9 2 c0.9643 1.997 4.467 1.017 6 0 c4.406 2.071 9.619 5.639 15 6 l-16 0 l-6 -2 c-4.508 -4.192 -7.293 3.884 -12 3 c1.954 -3.094 8.822 -6.339 3 -9 l1 0 z"/>
<path style="fill:#6a3d46" d="M494 457 c-9.061 -1.755 -11.35 16.07 0 9 l5 -1 c-2.209 5.04 -22.9 5.027 -16 -3 c4.677 -0.6791 5.396 -9.676 11 -5 z"/>
<path style="fill:#d498a4" d="M512 459 l-13 6 l-5 1 c-6.376 1.581 0.2674 -5.096 1 -7 c6.782 10.83 11.08 -10.1 17 0 z"/>
<path style="fill:#613d32" d="M294 457 c-2.102 6.422 -8.852 19.19 -14 17 l5 -5 l9 -12 z"/>
<path style="fill:#ab667d" d="M494 457 l1 1 l0 1 c-0.7326 1.904 -7.376 8.581 -1 7 c-11.35 7.071 -9.061 -10.76 0 -9 z"/>
<path style="fill:#dec9ce" d="M167 458 l4 1 l5 2 c2.853 1.01 13.42 3.468 9 7 l-12 2 l-36 1 l-2 0 l-6 0 l-3.75 -0.75 c12.59 0.2137 24.57 -1.232 36.75 -2.25 c4.368 -0.205 9.057 -0.2555 12.75 -2.25 c-2.878 -4.789 -9.567 -4.689 -14.75 -4.75 c-11.11 -0.101 2.593 -4.217 7 -3 z"/>
<path style="fill:#426811" d="M412 458 c23.03 -8.757 -4.489 28.71 0 11 l0 -11 z"/>
<path style="fill:#936574" d="M50 462 l-26 18 l14 -15 c4.707 0.884 7.492 -7.192 12 -3 z"/>
<path style="fill:#9d88b0" d="M162 468 l-2 -7 c5.183 0.06116 11.87 -0.03937 14.75 4.75 c-3.693 1.995 -8.382 2.045 -12.75 2.25 z"/>
<path style="fill:#d1adb1" d="M50 462 l6 2 c7.777 2.577 18.66 5.672 22 8 c-17.35 5.262 -34.8 10.16 -54 9 l0 -1 l26 -18 z"/>
<path style="fill:#9b825c" d="M82 471 l-4 1 c-3.341 -2.328 -14.22 -5.423 -22 -8 l16 0 l1 -1 l9 8 z"/>
<path style="fill:#414310" d="M513 466 c10.12 9.142 10.41 29 7.25 40.75 c-1.277 -13.97 -1.089 -28.24 -7.25 -40.75 z"/>
<path style="fill:#457405" d="M185 468 c36.4 9.908 37.18 50.59 -1.75 60.75 c-23.24 -12.82 -6.461 -44.83 -10.25 -58.75 l12 -2 z"/>
<path style="fill:#427209" d="M301 468 c2.939 7.156 6.336 22.65 -3 23 c14.83 11.35 4.204 29.31 -5 40 c-6.217 -23.52 -14.05 -45.69 8 -63 z"/>
<path style="fill:#487605" d="M105 472 c8.077 -0.009552 21.91 3.559 30 -1 l2 0 c24.21 34.2 21.94 41.98 35.75 75.75 c-21.76 8.079 -41.19 8.531 -66.5 5 c-7.833 -25.32 -12.65 -52.21 -17 -78.5 c4.011 -5.005 10.31 0.4789 15.75 -1.25 z"/>
<path style="fill:#3f6804" d="M78 473 c17.37 29.24 9.352 55.18 13.75 74.75 c-36.16 -4.611 -51.36 -48.18 -14 -64 l0.25 -10.75 z"/>
<path style="fill:#aa8c78" d="M270 481 l-7 4 c-4.233 -6.812 -8.567 -9.865 -20 -6 c7.564 -7.92 18.64 -0.8256 27 2 z"/>
<path style="fill:#c99dac" d="M263 485 l-11 0 c-7.058 0.352 -13.53 -1.332 -20 -3 c2.828 -1.879 7.065 -3.287 11 -3 c11.43 -3.865 15.77 -0.8124 20 6 z"/>
<path style="fill:#455e19" d="M667 478 c2.215 5.008 3.671 11.82 3.75 17.75 c-5.724 -0.6945 -5.324 -10.67 -3.75 -17.75 z"/>
<path style="fill:#716038" d="M275 480 l-1 4 l-5 2 l-17 -1 l11 0 l7 -4 l5 -1 z"/>
<path style="fill:#32620b" d="M274 484 c8.369 14.64 42.41 101.8 -10.75 98.75 l0 -13 c-50.8 15.25 47.03 -5.941 21 -39 c-23.51 -12.28 -14.95 8.788 -1.25 18.25 c-35 18.98 -62.28 15.16 -52 -3 c-31.79 11.98 -32.64 -25.38 8 -45 c10.22 5.281 16.7 0.0166 25.75 8.75 c-0.2121 -10.38 6.475 -5.882 2.25 -21.75 c1.35 0.4557 2.456 -0.6497 2 -2 l5 -2 z"/>
<path style="fill:#061305" d="M800 494 l0 27 l-7.75 -35.75 c5.577 -1.308 4.485 6.696 7.75 8.75 z"/>
<path style="fill:#629654" d="M267 488 c4.225 15.87 -2.462 11.37 -2.25 21.75 c-9.054 -8.733 -15.53 -3.469 -25.75 -8.75 l15 -9 c-14.1 18.71 25.48 -0.2557 1 -1 l12 -3 z"/>
<path style="fill:#4c8b24" d="M274 490 c7.16 1.47 12.2 22.51 -1.75 30.75 c-9.844 -22.52 10.71 -13.51 1.75 -30.75 z"/>
<path style="fill:#b1d5a7" d="M255 491 c24.48 0.7443 -15.1 19.71 -1 1 l1 -1 z"/>
<path style="fill:#2e5008" d="M554 496 c14.88 19.81 -17.73 10.11 -1.25 7.75 l1.25 -7.75 z"/>
<path style="fill:#0b1903" d="M0 518 l0 -8 c4.904 -6.132 29.15 -15.85 13.75 -4.25 c-2.602 1.051 -3.873 3.94 0.25 3.25 c21.04 -2.909 -6.344 8.091 -14 9 z"/>
<path style="fill:#365608" d="M454 507 c4.132 3.849 5.303 12.79 7 19 l-28.75 6.75 c22.92 -15.39 -6.172 -7.1 -18 -4 c10.81 -13.9 31.48 -9.357 39.75 -21.75 z"/>
<path style="fill:#3d6106" d="M457 600 l-81 0 c6.668 -13.95 15.75 -16.21 57.75 -17.25 c-3.683 -9.03 -25.51 -9.929 0.5 -15.5 c-22.68 -10.9 24.29 -17.68 27.5 -38 c1.747 7.425 3.955 16.96 4.25 25.75 c-18.1 2.219 -25.66 0.01678 -4 32 c31.13 -23.09 -3.303 -90.67 60.75 -79.75 c-1.789 36.75 6.544 60.62 -18.5 38 c-2.322 34.36 -18.88 55.74 -47.25 54.75 z"/>
<path style="fill:#325206" d="M652 508 c10.52 2.667 18.32 4.645 22.25 6.75 c7.142 0.3667 0.55 4.763 5.5 7 c-20.35 -5.395 -81.27 25 -57 7.5 c-8.875 -3.255 -2.683 -3.586 -16.5 -5.5 c-11.35 -12.69 6.355 -6.164 8 -8 c6.765 2.755 43.41 5.645 37.75 -7.75 z"/>
<path style="fill:#3b5c08" d="M532 516 c15.29 3.538 25.55 19.89 34.75 36.75 c-6.881 -3.058 -19.85 0.05505 -32.5 8 l-2.25 -44.75 z"/>
<path style="fill:#413e0a" d="M590 600 l-1 0 l4.25 -81.75 c7.07 24.65 -2.7 48.44 -3.25 81.75 z"/>
<path style="fill:#305404" d="M714 556 c9.756 -3.688 29.77 9.813 14.25 14.25 l2.75 0.75 c11.2 -1.133 15.22 19.65 3 13 l-1.75 -2.75 c2.398 -6.195 -32.07 15.89 -32.25 6.75 c0.5066 -4.203 -4.934 -4.423 3.75 -3.25 l4.25 -7.75 c2.207 -1.628 -3.813 -0.8187 -5 -1 l-2.75 -0.25 c19.04 -2.922 -8.192 -19.71 13.75 -19.75 z"/>
<path style="fill:#3d6105" d="M676 600 l-67 0 c17.24 -18.13 37.37 -17.92 63.75 -22.75 l11.25 18.75 l-8 4 z"/>
<path style="fill:#2b5308" d="M308 580 c10.45 5.995 -8.097 23.74 -3.25 9.25 c-4.969 5.649 -5.277 -10.63 3.25 -9.25 z"/>
<path style="fill:#2d5109" d="M288 586 c5.397 -1.771 0.01093 4.594 3.75 3.75 l1.25 -1.75 c4.58 12.26 -20.1 1.099 -5 -2 z"/>
<path style="fill:#3f6708" d="M749 600 l-42 0 c12.71 -1.487 41.86 -20.24 42 0 z"/>
</svg>
